<?xml version="1.0" encoding="utf-8"?>
<svg viewBox="0 0 538.19 239.98" xmlns="http://www.w3.org/2000/svg">
  <defs>
    <style>.cls-1{fill:#662600;}.cls-2{fill:#fe0000;}.cls-3{fill:#ac0102;}.cls-4{fill:#a84a17;}.cls-5{fill:#652601;}.cls-6{fill:#ccc;}.cls-7{fill:#642601;}.cls-8{fill:#b23e01;}.cls-9{fill:#cbcbca;}.cls-10{fill:#9b4b20;}.cls-11{fill:#faddae;}.cls-12{fill:#020203;}.cls-13{fill:#4f2d1a;}.cls-14{fill:#d1ccc4;}.cls-15{fill:#c2c2c4;}.cls-16{fill:#fd0102;}.cls-17{fill:#b23f00;}.cls-18{fill:#cccccb;}.cls-19{fill:#cbcbcb;}.cls-20{fill:#af0302;}.cls-21{fill:#fff;}.cls-22{fill:#642602;}.cls-23{fill:#b13e01;}.cls-24{fill:#ae0101;}.cls-25{fill:#ac0101;}.cls-26{fill:#b13d03;}.cls-27{fill:#5d2201;}.cls-28{fill:#010102;}.cls-29{fill:#974c1f;}.cls-30{fill:#8b3d3c;}.cls-31{fill:#bc2527;}.cls-32{fill:#fefdfd;}.cls-33{fill:#493331;}.cls-34{fill:#4b3434;}.cls-35{fill:#010101;}.cls-36{fill:#ac2d2e;}.cls-37{fill:#622401;}.cls-38{fill:#642501;}.cls-39{fill:#fdfefe;}.cls-40{fill:#632501;}.cls-41{fill:#fefffe;}</style>
  </defs>
  <title>Zasób 1</title>
  <g id="Warstwa_2" data-name="Warstwa 2">
    <g id="Warstwa_1-2" data-name="Warstwa 1">
      <path class="cls-1" d="M65,8.44C69.95,7.61,72.86,3.18,76.25,0c1.09,7.91-5.3,13.56-8.84,19.86a19.94,19.94,0,0,0-3,11.94c-5.61-.06-11,1.46-16.26,3.31a77.41,77.41,0,0,0-10-5.15c-7.19-2.67-14.11-5.91-21-9.21,4.41,5.31,11,7.86,17.12,10.52,2.7,1.35,5.49,2.81,7.46,5.17,1,1.67.93,3.73,1.35,5.59l3.23.08c-.46,1.48-.95,3-1.41,4.43a16.41,16.41,0,0,0,6.09,0C58.13,45,65,42.3,72.24,41.68,90.15,39,108.4,45.25,122.61,56.07c-2.57,6.94-3,15.11.61,21.76q3.71-1.79,7.52-3.38a36.12,36.12,0,0,0,1.07,9.15C126.07,82.08,120,82.1,114.4,80c-4.85-1.84-6.56-7.39-6.54-12.14.52-3.28.67-6.64-.71-9.74,2.43-2.18,4.92-6.81,1.7-9.29-2.11-.59-4,1.46-5.92,2.19A61,61,0,0,0,97.48,47a10.71,10.71,0,0,0-12,.09c-2.94,1.92-5.81,4.4-7,7.81-1.27,3.16-.29,6.58.05,9.82a7.3,7.3,0,0,0,2.09,7.64c3.4,9.17,8.07,18.09,15.45,24.7,6.51,6.23,15.06,9.8,23.85,11.36-1.17,6.43-2,12.91-3.18,19.34-7.32-10.25-15.4-21-27.37-26-8.52-3.6-18-3.56-27-3.32-8.08-.61-16.17.16-24.25,0-2.49-7.11-4.33-14.58-4-22.16C34.29,68.47,36.63,61,39,53.61c1.08-1.58,2.82-2.55,4.27-3.75l-1.94-1.64c.21-1.31.42-2.61.65-3.91-1.89-1.41-1.91-3.49-.64-5.31-6.79-6.19-15.86-8.47-23.91-12.44C12.76,24.33,9.57,20,7.91,15.17c1.68.81,3.34,1.69,5,2.51,4.74-1,8.46-4.4,13.07-5.71,4-1.09,7.1,3,11,2.59,5.6-1.21,9.14-6.65,14.77-7.82C56.34,5.75,60.57,8.28,65,8.44Z"/>
      <path class="cls-2" d="M114.08,28.07c7.48-7.2,16.36-13.55,26.74-15.54a25.23,25.23,0,0,1,21.47,5.42c5.14,4.2,8.5,10.07,11.36,16l-1.59-.51c-13.24-4.27-27.86-5.16-41.17-.66.65-5.24,1.91-10.37,3-15.52a44.56,44.56,0,0,0-8.09,8c-2.54,3.28-6.86,3.88-10.6,4.91Z"/>
      <path class="cls-3" d="M125.8,25.18a44.56,44.56,0,0,1,8.09-8c-1.09,5.15-2.35,10.28-3,15.52-1.41.53-2.79,1.12-4.16,1.74l-1.5.66a39.12,39.12,0,0,1,1.13-7.54,65.55,65.55,0,0,1-10.25,4.26l-.91-1.76C118.94,29.06,123.26,28.46,125.8,25.18Z"/>
      <path class="cls-4" d="M17.22,20.75c6.91,3.3,13.83,6.54,21,9.21-1.3.43-2.6.86-3.9,1.31C28.19,28.61,21.63,26.06,17.22,20.75Z"/>
      <path class="cls-5" d="M429.19,26.4c5.06,7.26,9.59,15.24,16.75,20.69a91.82,91.82,0,0,1,1.85-12c1,6.41,1.48,13.05,4.35,19a28.83,28.83,0,0,0,10.92,13.06c.4-2.56.67-5.14.88-7.72,1.95,6.09,2.59,12.63,5.79,18.29.38.87.73,1.76,1,2.66a15.17,15.17,0,0,1-2.6.25c-3.81-4.06-8.42-7.26-12.23-11.32C444,57.3,433.36,43,429.19,26.4Z"/>
      <path class="cls-6" d="M104.67,30c2.07-3.24,6.2-2.79,9.41-1.95l1.12,2,.91,1.76c1,3.61-2.3,7.82-6.16,7.28C105.58,39.32,101.86,33.72,104.67,30Z"/>
      <path class="cls-7" d="M462.49,27.74c1.48,4.89,2.8,9.84,4.67,14.61,1.71-2,3.41-4,5.3-5.89-1.31,4.2-3.19,8.33-3.33,12.8-.29,5.3,2.5,10.05,4.71,14.66,1.86-1.14,3.71-2.27,5.6-3.38a50.17,50.17,0,0,0-2.11,16.52c-1.3-.94-2.61-1.86-3.88-2.82-2.64-2.24-3.57-5.8-4.93-8.86A115.48,115.48,0,0,1,462.49,27.74Z"/>
      <path class="cls-8" d="M34.34,31.27c1.3-.45,2.6-.88,3.9-1.31a77.41,77.41,0,0,1,10,5.15c5.23-1.85,10.65-3.37,16.26-3.31,2.81-.35,6.46.94,5,4.43a5.17,5.17,0,0,1,2.76,5.45C65,42.3,58.13,45,51.06,46.55a16.41,16.41,0,0,1-6.09,0c.46-1.48.95-2.95,1.41-4.43L43.15,42c-.42-1.86-.36-3.92-1.35-5.59C39.83,34.08,37,32.62,34.34,31.27Z"/>
      <path class="cls-9" d="M130.89,32.73c13.31-4.5,27.93-3.61,41.17.66a6.26,6.26,0,0,1,3.7,9c-15.57-5.6-34.17-7.93-48.92,1.15l-1.24.74c-2.9-2.74-3.24-8.34,1.13-9.8C128.1,33.85,129.48,33.26,130.89,32.73Z"/>
      <path class="cls-10" d="M52.05,40.6c2.18-3.2,6.68-3.09,10.15-3.12A23,23,0,0,1,52.05,40.6Z"/>
      <path class="cls-11" d="M126.84,43.53c14.75-9.08,33.35-6.75,48.92-1.15a45.3,45.3,0,0,1,3.53,11.79,48.93,48.93,0,0,1-8.41,10.54c-4-3.44-7.11-8.25-12.39-9.9.11-.43.34-1.28.45-1.71A16.81,16.81,0,0,0,145,51.36c-1.36.37-1.84,1.89-2.69,2.86-4.22,3.19-7.87,7.06-12.13,10.21a60.4,60.4,0,0,1-7.14-9.64C123.55,50.9,124.16,46.54,126.84,43.53Z"/>
      <path class="cls-12" d="M131.82,48.13c1.86-2.06,4.06-4.35,7.06-4.33,2.78-.18,5.08,1.62,7.14,3.26C141.26,45.72,136.24,45.68,131.82,48.13Z"/>
      <path d="M154.59,47.82c2-2,4.29-4.29,7.35-4.26,2.84-.27,5.17,1.61,7.09,3.46A17.44,17.44,0,0,0,154.59,47.82Z"/>
      <path class="cls-13" d="M85.48,47.1a10.71,10.71,0,0,1,12-.09A27.91,27.91,0,0,0,85.48,47.1Z"/>
      <path d="M85.48,47.1a27.91,27.91,0,0,1,12-.09,61,61,0,0,1,5.45,4.05c1.93-.73,3.81-2.78,5.92-2.19,3.22,2.48.73,7.11-1.7,9.29-2.51,2.54-4.57,5.82-8.07,7.1-6.63,2.72-13.91,1.26-20.57-.53-.34-3.24-1.32-6.66-.05-9.82C79.67,51.5,82.54,49,85.48,47.1Z"/>
      <path class="cls-14" d="M164.55,54c1.72-4.1,7.71-4.39,10-.67A67.39,67.39,0,0,1,164.55,54Z"/>
      <path class="cls-15" d="M127.71,53.75c2.47-3.52,7.7-2.71,10.31.23C134.58,54,131.14,54,127.71,53.75Z"/>
      <path class="cls-16" d="M142.36,54.22c.85-1,1.33-2.49,2.69-2.86a16.81,16.81,0,0,1,13.89,1.74c-.11.43-.34,1.28-.45,1.71C153.4,57.54,147.36,56.7,142.36,54.22Z"/>
      <path class="cls-17" d="M24.68,100.19c-5.37-16.6.86-35.72,14.33-46.58C36.63,61,34.29,68.47,34.07,76.27c-.35,7.58,1.49,15,4,22.16l.31.78c8,.38,16,.47,23.94-.77,9.08-.24,18.53-.28,27,3.32,12,5.05,20.05,15.76,27.37,26,6.78,11.14,17.66,19.94,30.28,23.48,12.17,3.56,26.09,2.22,36.69-5,5.93-3.61,10.67-8.79,14.8-14.3,4.85-7,6.44-15.58,11-22.74.71-1,1.44-1.95,2.18-2.9,1.4-1.91,2.95-3.71,4.52-5.47L218,99.41c2.06-.55,4.35-1.75,4.26-4.24l1.42-.88,2-.41c1.76-.76,2.56-2.68,4.33-3.42a62.36,62.36,0,0,1,46.34-3.41c9.85,3.26,19.24,9.89,23.24,19.77,3.27,8,2.1,16.88-.67,24.79-6.69,5.45-14.27,10.21-22.95,11.53-9,1.63-19.85-.75-24.9-9-3.11-5.42-3.91-13.22.41-18.2,4.06-4.43,10.45-4.28,16-4.81-5.35-3.3-12.75-4-18.12-.39-6.39,4.49-8.76,13.08-7.2,20.51,1.49,8.63,8.2,15.63,16.19,18.78-.47,13.93-4,28-11.45,39.82-6.15,4.83-12.38,9.71-19.52,13-1.56-2-2.75-4.87-5.32-5.74-4.58-.25-8.16,3-10.53,6.58,2,1.28,4,2.54,5.89,3.93-30.81,12.83-66.51,12.4-97.59.71-2.75-1.06-5.7-2-7.76-4.28-1-2.22-1.68-4.7-3.49-6.42-1.62-1.49-3.75-2.22-5.7-3.15-1.33,1-2.68,2-4,3.08-13.47-9-25.07-21.94-29.48-37.82-2.62-8.28-2.24-17.06-1.35-25.57.54-2.92-3-3.46-5.1-3.27-10.72.79-21.45,5.76-32.21,2.68-6.9-1.85-9.11-9.41-13.63-14.1-.37-4.06-1-8.19-.29-12.25C17.81,103.54,21.33,101.43,24.68,100.19Z"/>
      <path class="cls-18" d="M142.36,54.22c5,2.48,11,3.32,16.13.59,5.28,1.65,8.38,6.46,12.39,9.9a48.93,48.93,0,0,0,8.41-10.54c3,7,1.08,14.8-.88,21.77L174,73.82c-.26,1.69-.5,3.4-.74,5.1A51.25,51.25,0,0,1,164,91.55L163,88.87c-3.75,4.09-7.67,8-11.53,12-4.2-3.74-6.71-8.83-9.11-13.82-.76,1.71-1.5,3.43-2.28,5.14-3.24-2.33-6.36-5-8.24-8.57a36.12,36.12,0,0,1-1.07-9.15q-3.81,1.59-7.52,3.38C119.6,71.18,120,63,122.61,56.07l.48-1.28a60.4,60.4,0,0,0,7.14,9.64C134.49,61.28,138.14,57.41,142.36,54.22Z"/>
      <path class="cls-19" d="M99.08,65.26c3.5-1.28,5.56-4.56,8.07-7.1,1.38,3.1,1.23,6.46.71,9.74-4.83,5.16-11.86,8.21-19,6.84-2.79-.68-5.55-1.5-8.29-2.37a7.3,7.3,0,0,1-2.09-7.64C85.17,66.52,92.45,68,99.08,65.26Z"/>
      <path class="cls-20" d="M144.19,64.41c2.73-1.85,5.49-3.92,6.74-7.09a21,21,0,0,0,6.11,7c-1.52,2.07-3.11,4.84-6.06,4.72C147.76,69.52,145.81,66.67,144.19,64.41Z"/>
      <path d="M279,59.86c26.37-3.55,53.76.14,77.91,11.44,21.52,9.58,40.21,24.32,61.5,34.31a90.21,90.21,0,0,0,36.5,8.93c2,.34,4.81-.27,6.21,1.5l-.3.27-1.78,1.49c-18.25,1-36-5.26-51.77-14-20.41-11.28-39.42-25.38-61.51-33.39-21.34-8.17-44.67-9.87-67.24-7.29-.06.52-.11,1-.15,1.55l.34-1.16c21.54,1.58,41.58,12.21,56.91,27.1a151.83,151.83,0,0,1,14.26,15.73c7.22,9.09,17,15.86,27.53,20.63,26.4,12.1,59.24,10.75,83.53-5.67,3-1.84,5.41-4.94,9.1-5.2l2.23.34a82.25,82.25,0,0,1-40.42,20.08c-19.41,3.81-39.86.81-57.76-7.42A76.41,76.41,0,0,1,353.24,115c-4.88-4.5-8.56-10.07-13.09-14.89-14-15.64-32.38-28.28-53.34-32.06-18.17-3.37-37-.2-54,6.59-5.33,2-10.38,4.66-15.62,6.89,2.19.89,4.6,1.55,6.33,3.25,2,1.78,2.73,4.4,4,6.66-1.22,1-2.49,2-3.78,2.88l-1.42.88c-1.8.94-3.78,2.09-4.26,4.24l-1.87,1.42A16.56,16.56,0,0,1,206.7,89.3a27.47,27.47,0,0,1,0-5.13l-1-1.56c1.09-2.77,2.42-7.36,6.21-6.83,1.21,1,1.54,2.59,2.13,4C233.93,68.58,256.49,62.84,279,59.86Z"/>
      <path class="cls-11" d="M133.79,66.34a93.77,93.77,0,0,0,10.4-1.93c1.62,2.26,3.57,5.11,6.79,4.63,2.95.12,4.54-2.65,6.06-4.72a63.43,63.43,0,0,0,9.87,2.41c-1.61,2.46-3.39,5.1-6.3,6.14-2.54,1.22-5.27.16-7.84-.32-3.33-1-6.48,1.77-9.84.9C138.87,72.76,136.47,69.08,133.79,66.34Z"/>
      <path class="cls-2" d="M88.89,74.74c7.11,1.37,14.14-1.68,19-6.84,0,4.75,1.69,10.3,6.54,12.14,5.59,2.06,11.67,2,17.41,3.56,1.88,3.58,5,6.24,8.24,8.57.78-1.71,1.52-3.43,2.28-5.14,2.4,5,4.91,10.08,9.11,13.82,3.86-4,7.78-7.89,11.53-12L164,91.55a51.25,51.25,0,0,0,9.24-12.63c6.26,2.4,9.43,8.94,15.29,11.88,4.19,2.14,8.74-.29,12.14-2.8-.7,6.38,2.07,13.13,7.72,16.44-4.41,2.89-9.51,6.14-15,5.28a53.55,53.55,0,0,1-8.73-6.92c-2.93-6.88-4.31-14.49-8.38-20.89-.78-1.11-2.23-1.44-3.31-2.18,2.36,5.78,5.72,11.14,7.39,17.19.9,2.73,1.25,5.69,2.68,8.22,2.49,2.74,5.67,4.87,7.64,8.07a54.62,54.62,0,0,1,7.79,18.73c-4.13,5.51-8.87,10.69-14.8,14.3-8.54.29-17.16,1.21-25.66-.26-8.88-1.53-18-4.78-24.23-11.57-6.61-7-8.66-17.38-7.22-26.65,3.09-2.59,6.55-4.87,8.54-8.51-8.34,2.72-17.52,5.23-26.1,2C98,97,91.36,85.8,88.89,74.74Z"/>
      <path class="cls-22" d="M448.51,70.17l1,1c5.07,5.63,11.49,11,12.52,19C453.79,87.29,448.82,78.63,448.51,70.17Z"/>
      <path class="cls-23" d="M449.51,71.2a59.24,59.24,0,0,1,16.43,9.26l2.23.16a15.17,15.17,0,0,0,2.6-.25c-.31-.9-.66-1.79-1-2.66,1.23-1.16,2.46-2.32,3.72-3.47,1.27,1,2.58,1.88,3.88,2.82,1.45,1.06,2.91,2.13,4.38,3.17-1.06,1.87-2.61,3.79-2.23,6.1.24,4.31,5.28,7.79,9.28,5.7,2.25-.86,3.37-3.1,4.3-5.16,9.83,4.59,20.93,8.41,31.87,6l1.31,2.92c-14.09,9-31.89,11.15-48,7,.49,3.21,1,6.42,1.54,9.63-5.41-.6-10.79-1.34-16.17-2.14a31.85,31.85,0,0,0-1.6-20C461,82.2,454.58,76.83,449.51,71.2Z"/>
      <path class="cls-24" d="M80.6,72.37c2.74.87,5.5,1.69,8.29,2.37C91.36,85.8,98,97,109,101.22c8.58,3.26,17.76.75,26.1-2-2,3.64-5.45,5.92-8.54,8.51-1.44,9.27.61,19.67,7.22,26.65,6.25,6.79,15.35,10,24.23,11.57,8.5,1.47,17.12.55,25.66.26-10.6,7.23-24.52,8.57-36.69,5-12.62-3.54-23.5-12.34-30.28-23.48,1.15-6.43,2-12.91,3.18-19.34-8.79-1.56-17.34-5.13-23.85-11.36C88.67,90.46,84,81.54,80.6,72.37Z"/>
      <path class="cls-25" d="M173,79.73c1.08.74,2.53,1.07,3.31,2.18,4.07,6.4,5.45,14,8.38,20.89a53.55,53.55,0,0,0,8.73,6.92c5.49.86,10.59-2.39,15-5.28,1.06.63,2.14,1.23,3.22,1.86-.74,1-1.47,1.92-2.18,2.9a37.57,37.57,0,0,1-18.75,4c-2-3.2-5.15-5.33-7.64-8.07-1.43-2.53-1.78-5.49-2.68-8.22C178.71,90.87,175.35,85.51,173,79.73Z"/>
      <path class="cls-1" d="M482.45,87.08c.62-1.84,1.41-3.94,3.52-4.48,3-.37,5.64,4,2.74,5.79-.76-1.39-.35-4.55-2.73-4.08-1.38.56-1.22,2.46-1.88,3.62Z"/>
      <path class="cls-26" d="M525.48,86.36c2.56-2.57,6.84-4.25,10-1.59,3.26,2.36,3.24,6.72,1.91,10.16-2.48-.42-5.18-.29-7.43-1.54C527.55,91.75,526.78,88.77,525.48,86.36Z"/>
      <path class="cls-19" d="M200.69,88c1.05-1.73,3.27-2.45,4.83-3.65,0,1.82-.05,3.65-.09,5.48l1.27-.53a16.56,16.56,0,0,0,9.45,11.53c-1.57,1.76-3.12,3.56-4.52,5.47-1.08-.63-2.16-1.23-3.22-1.86C202.76,101.13,200,94.38,200.69,88Z"/>
      <path class="cls-27" d="M524.93,92.83c-1.14-2.1-.12-4.42.55-6.47,1.3,2.41,2.07,5.39,4.44,7,2.25,1.25,5,1.12,7.43,1.54A8,8,0,0,1,527,96.77c-12.08,10.42-29.44,13.61-44.62,9,.35,2.35.73,4.7,1,7.06-1.19-.2-2.38-.37-3.57-.52-.53-3.21-1-6.42-1.54-9.63,16.09,4.17,33.89,2.05,48-7Z"/>
      <path class="cls-11" d="M218,99.41c.48-2.15,2.46-3.3,4.26-4.24C222.37,97.66,220.08,98.86,218,99.41Z"/>
      <path class="cls-28" d="M162.75,101.44c.35-4.31,7.53-5.41,8.12-.87,0,1.13,0,2.27,0,3.41-.19,3.47-5.77,4.4-7.28,1.33C163.32,104,163,102.72,162.75,101.44Z"/>
      <path class="cls-29" d="M38.05,98.43c8.08.17,16.17-.6,24.25,0-7.92,1.24-16,1.15-23.94.77Z"/>
      <path class="cls-30" d="M170.87,100.57c1.88-.4,1.9,3.81,0,3.41C170.84,102.84,170.84,101.7,170.87,100.57Z"/>
      <path class="cls-31" d="M163.6,105.31c-2,.6-3-3.74-.85-3.87C163,102.72,163.32,104,163.6,105.31Z"/>
      <path class="cls-5" d="M249.37,110.73c5.37-3.61,12.77-2.91,18.12.39-5.5.53-11.89.38-16,4.81-4.32,5-3.52,12.78-.41,18.2,5,8.26,15.91,10.64,24.9,9,8.68-1.32,16.26-6.08,22.95-11.53-3.57,11.14-14.58,18.88-26,19.85A37.84,37.84,0,0,1,258.36,150c-8-3.15-14.7-10.15-16.19-18.78C240.61,123.81,243,115.22,249.37,110.73Z"/>
      <path class="cls-24" d="M459.58,114.6c0-2.34,1-5.63,4.05-4.38,5.38.8,10.76,1.54,16.17,2.14,1.19.15,2.38.32,3.57.52a27.1,27.1,0,0,1,3.48,1.12c-.18,1.28-.37,2.57-.56,3.85l-2.54.07c-1.17,0-2.34-.14-3.49-.26-2.67-.34-5.33-.76-8-1.22l-2.23-.34-7.5-1.07Z"/>
      <path class="cls-12" d="M168.64,112.22c1.67-.54,3.43-2,5.25-1.09,3.47,1.34,3.76,6.79.61,8.65-1.75,1.53-3.94.1-5.77-.45l.21-1.14c-.22-.46-.68-1.38-.91-1.84l.11-1.07.77-1.9Z"/>
      <path class="cls-33" d="M168,113.56l.86-.18-.77,1.9C168.11,114.85,168.07,114,168,113.56Z"/>
      <path class="cls-23" d="M462.56,115l7.5,1.07c-3.69.26-6.15,3.36-9.1,5.2-24.29,16.42-57.13,17.77-83.53,5.67-.13-.36-.4-1.06-.53-1.42a43.87,43.87,0,0,1,18-4.75c14.49-.62,28.67,3,42.92,5,3.89.37,8.07.81,11.73-.89s6.46-4.54,9.46-7.1l1.78-1.49.3-.27Z"/>
      <path class="cls-34" d="M168,116.35c.23.46.69,1.38.91,1.84l-.87-.13Z"/>
      <path class="cls-17" d="M472.29,116.44c2.64.46,5.3.88,8,1.22a91.11,91.11,0,0,1-.25,27.19c6-1.63,11.73-4,17.66-5.86,3.52-1.15,7-2.56,10.55-3.53-2.33,14-4.4,28-6.6,41.93-.52,2.75-.35,5.94-2.49,8.06-5.08,5.89-10,11.91-15.08,17.78q-2.76-5-5.71-9.94c5.81-3.37,11.78-6.52,17.39-10.22,1-2.76.48-5.83.8-8.71.68-8.54,1.07-17.09,1.82-25.62-1.56.76-3.1,1.56-4.67,2.3-2,.91-4.08,1.77-6.13,2.62-8.46,3.89-17.09,7.43-25.4,11.64-15.15,5.78-30.8,11.16-47.2,11.52a81.3,81.3,0,0,1-22.72-2.38c-1.78,7.51-5.35,14.41-9.6,20.79-2.75,4.2-5.82,8.17-8.92,12.12a27,27,0,0,1-6.33,4.54q-14.9,7.67-29.6,15.72C327.86,232.42,318,238,307.08,240c3.06-4.24,6.26-8.38,9.26-12.66,3.18,1.44,6.77,2.43,10.2,1.24,7.73-1.71,14.08-6.7,20.42-11.14a212.64,212.64,0,0,0,22.92-20.12c-2.25-15.49-4.23-31-5.3-46.66-5.54,1-11.54,1.46-16.67-1.29a22.91,22.91,0,0,1-11.6-15.88c6.69,3.69,14.55,0,21.61,2.14,2.79.67,4.87,2.79,6.91,4.69,1.38-4.63,4.37-8.51,7.83-11.8l1.45.6c17.9,8.23,38.35,11.23,57.76,7.42A82.25,82.25,0,0,0,472.29,116.44Z"/>
      <path class="cls-7" d="M480.26,117.66c1.15.12,2.32.22,3.49.26a96.9,96.9,0,0,1-.41,14.85q9-2,18-4c-1.31,3.36-2.39,6.81-3.66,10.19-5.93,1.82-11.67,4.23-17.66,5.86A91.11,91.11,0,0,0,480.26,117.66Z"/>
      <path class="cls-5" d="M17.13,119.48c4.52,4.69,6.73,12.25,13.63,14.1,10.76,3.08,21.49-1.89,32.21-2.68,2.12-.19,5.64.35,5.1,3.27-.89,8.51-1.27,17.29,1.35,25.57,4.41,15.88,16,28.8,29.48,37.82a53.63,53.63,0,0,0-5.15,4.85,48.49,48.49,0,0,1-8.48-7.31C75,184,66,171.38,61.47,156.86c-1.8-5.21-.87-11.67-5.5-15.57-5.63-5-13.44-2.35-20-1.29-4.94.89-11.61,1.82-14.66-3.26C18.64,131.41,17.94,125.32,17.13,119.48Z"/>
      <path class="cls-35" d="M174.61,127.27c3-4.44,9.9.61,7.32,5-1.32,3.75-7.23,3.8-8.16-.24C174,130.44,174.3,128.85,174.61,127.27Z"/>
      <path class="cls-36" d="M173.77,132c-2.14-.32-1.27-5,.84-4.76C174.3,128.85,174,130.44,173.77,132Z"/>
      <path class="cls-37" d="M334.37,131.83l1.61.38c.08.31.25.94.33,1.26a22.91,22.91,0,0,0,11.6,15.88c5.13,2.75,11.13,2.32,16.67,1.29,1.07,15.63,3.05,31.17,5.3,46.66A212.64,212.64,0,0,1,347,217.42c-6.34,4.44-12.69,9.43-20.42,11.14a58.51,58.51,0,0,1,5-3.36c.06-2.27.1-4.55.15-6.81a51.8,51.8,0,0,1,8.3,1.33c9.4-6.88,18.8-14.19,25.68-23.71-1.21-14-3.46-28-4.37-42.15C355.71,156,349,156,344,152.37c-6-4.6-8.3-12.4-8.82-19.62Z"/>
      <path class="cls-38" d="M487.55,153.66c2-.85,4.1-1.71,6.13-2.62-3.58,11.32-7.11,22.7-11.24,33.82-4.62,3.28-9.57,6.06-14.33,9.14.29-3.77.13-7.61,1-11.3,3.47-1.13,7.1-1.68,10.65-2.55C482.48,171.36,484.66,162.4,487.55,153.66Z"/>
      <path class="cls-5" d="M414.95,176.82c16.4-.36,32.05-5.74,47.2-11.52-3.67,3-8.08,4.93-12.35,6.91a105.3,105.3,0,0,1-50.09,8.56c.07,7.22,0,14.45,0,21.67-16.78,8-33.48,16.21-50.19,24.35-3.61,2-7.89.89-11.78.82q14.69-8.07,29.6-15.72a27,27,0,0,0,6.33-4.54c3.31-1.94,6.83-3.47,10.3-5.11q-.72-3.5-1.38-7c4.25-6.38,7.82-13.28,9.6-20.79A81.3,81.3,0,0,0,414.95,176.82Z"/>
      <path d="M271.9,187.34a17.06,17.06,0,0,1,12-4c11.17-.62,21.93,10.65,19.21,21.89-2.55,10-10.27,18.3-19.6,22.47a68.47,68.47,0,0,1-26.59,5.37c-85.64.59-171.3.41-256.95.76a45,45,0,0,1,27.93-9c20,.08,39.94.12,59.91.23a26,26,0,0,1,5.91-22.73,53.63,53.63,0,0,1,5.15-4.85c1.31-1.06,2.66-2.07,4-3.08,1.95.93,4.08,1.66,5.7,3.15,1.81,1.72,2.51,4.2,3.49,6.42a29.5,29.5,0,0,0-9,3.56c-6,3.7-9.07,10.58-9,17.47,43.42.84,86.87.47,130.3.82A21.92,21.92,0,0,0,222,213a25,25,0,0,0-4.58-5.35c-1.91-1.39-3.91-2.65-5.89-3.93,2.37-3.56,5.95-6.83,10.53-6.58,2.57.87,3.76,3.71,5.32,5.74.92,1.57,1.84,3.14,2.68,4.76a25.91,25.91,0,0,1,1.41,18.31c16.26.23,33.2,1,48.48-5.63,6.63-2.73,12.43-8,14.82-14.88,1.23-3.49,1.41-7.75-.85-10.88-2.46-3.54-7.66-4.37-11.38-2.45-1.34,2.3,2.24,3.92,2.27,6.2a6.93,6.93,0,0,1-6.88,6.34c-3.79-.12-8.11-1.9-9.36-5.8A12,12,0,0,1,271.9,187.34Z"/>
      <path class="cls-7" d="M227.39,202.85c7.14-3.3,13.37-8.18,19.52-13-4,7.33-10,13.36-16.44,18.59l-.4-.82C229.23,206,228.31,204.42,227.39,202.85Z"/>
      <path class="cls-40" d="M103.07,207.61a29.5,29.5,0,0,1,9-3.56c2.06,2.23,5,3.22,7.76,4.28,31.08,11.69,66.78,12.12,97.59-.71A25,25,0,0,1,222,213c-11.14,4.54-23.13,6.51-35.08,7.4-13.14,1.23-26.39.51-39.47-1C132.25,217.46,117,214.16,103.07,207.61Z"/>
    </g>
  </g>
</svg>