<svg xmlns="http://www.w3.org/2000/svg" viewBox="0 0 146.78 271.84"><defs><style>.cls-1{fill:#c9cee4;}.cls-2{fill:#f2eff7;}.cls-3{fill:#c4c9e4;}.cls-4{fill:#c5cbe0;}.cls-5{fill:#11434b;}.cls-6{fill:#1c4c52;}.cls-7{fill:#b0bdd5;}.cls-8{fill:#002f21;}.cls-9{fill:#a9b8d7;}.cls-10{fill:#c4cbe2;}.cls-11{fill:#ced2e5;}.cls-12{fill:#c4cbe3;}.cls-13{fill:#214c4d;}.cls-14{fill:#c9cfe6;}.cls-15{fill:#aebbd6;}.cls-16{fill:#1a4a4b;}.cls-17{fill:#002725;}.cls-18{fill:#eeecf6;}.cls-19{fill:#12435e;}.cls-20{fill:#0e433f;}.cls-21{fill:#c8cee3;}.cls-22{fill:#aab9d5;}.cls-23{fill:#ccd2e6;}.cls-24{fill:#265154;}.cls-25{fill:#0b3b3c;}.cls-26{fill:#bac3db;}.cls-27{fill:#b4c1da;}.cls-28{fill:#144446;}.cls-29{fill:#c2c9dd;}.cls-30{fill:#bcc8e0;}.cls-31{fill:#97abcb;}.cls-32{fill:#b7c3dd;}.cls-33{fill:#e1dfec;}.cls-34{fill:#063d38;}.cls-35{fill:#a3b4d4;}.cls-36{fill:#0e423f;}.cls-37{fill:#053d37;}.cls-38{fill:#b0bddb;}.cls-39{fill:#98accb;}.cls-40{fill:#0a483f;}.cls-41{fill:#124240;}.cls-42{fill:#b4bfdb;}.cls-43{fill:#113f3f;}.cls-44{fill:#ced2e4;}.cls-45{fill:#c4cae0;}.cls-46{fill:#14413d;}.cls-47{fill:#c5d2e9;}.cls-48{fill:#396268;}.cls-49{fill:#c2c9da;}.cls-50{fill:#b3bed5;}.cls-51{fill:#275251;}.cls-52{fill:#b3bfd9;}.cls-53{fill:#e9e6e8;}.cls-54{fill:#bdc6d7;}.cls-55{fill:#e4e5f0;}.cls-56{fill:#b4c1db;}.cls-57{fill:#dbdced;}.cls-58{fill:#174746;}.cls-59{fill:#b8c3dc;}.cls-60{fill:#cacbea;}.cls-61{fill:#b9c3de;}.cls-62{fill:#134446;}.cls-63{fill:#114246;}.cls-64{fill:#174645;}.cls-65{fill:#dddfeb;}.cls-66{fill:#d0d3e2;}.cls-67{fill:#c1c8df;}.cls-68{fill:#c6cde1;}.cls-69{fill:#d3d6e7;}.cls-70{fill:#dedeec;}.cls-71{fill:#c7cee2;}.cls-72{fill:#d5d7e1;}.cls-73{fill:#c0c6e2;}.cls-74{fill:#e3e4eb;}.cls-75{fill:#bdc6dd;}.cls-76{fill:#e9e7f3;}.cls-77{fill:#2b5952;}.cls-78{fill:#f2edf0;}.cls-79{fill:#003129;}.cls-80{fill:#09403b;}.cls-81{fill:#6e8b97;}.cls-82{fill:#466b70;}.cls-83{fill:#b6c1da;}.cls-84{fill:#c6cfe3;}.cls-85{fill:#c8d4e9;}.cls-86{fill:#ccd0e5;}.cls-87{fill:#dadbe9;}.cls-88{fill:#bfc8e0;}.cls-89{fill:#b5c2dd;}.cls-90{fill:#c7cee4;}.cls-91{fill:#cfd3e5;}.cls-92{fill:#7996c5;}.cls-93{fill:#113f3b;}.cls-94{fill:#b9c4de;}.cls-95{fill:#aab9d7;}.cls-96{fill:#cacfe5;}.cls-97{fill:#c6cde3;}.cls-98{fill:#b8c3dd;}.cls-99{fill:#d0d5e8;}.cls-100{fill:#c8cde4;}.cls-101{fill:#17484b;}.cls-102{fill:#bbc5df;}.cls-103{fill:#c1c9e0;}.cls-104{fill:#c2c9e1;}.cls-105{fill:#a9b8d3;}.cls-106{fill:#9aaed1;}.cls-107{fill:#0e403c;}.cls-108{fill:#95abd0;}.cls-109{fill:#9db1d1;}.cls-110{fill:#b6c7e5;}.cls-111{fill:#98acce;}.cls-112{fill:#d1d5ee;}.cls-113{fill:#b7c2dd;}.cls-114{fill:#bec8df;}.cls-115{fill:#cbd0e5;}.cls-116{fill:#a4b4d3;}.cls-117{fill:#cdd1e5;}.cls-118{fill:#a5b5d2;}.cls-119{fill:#bbc5de;}.cls-120{fill:#bac7e0;}.cls-121{fill:#0b403b;}.cls-122{fill:#b7c0cf;}.cls-123{fill:#3b6161;}.cls-124{fill:#00332e;}.cls-125{fill:#efeff8;}.cls-126{fill:#dcdff2;}.cls-127{fill:#e8e3f5;}.cls-128{fill:#164553;}.cls-129{fill:#00311d;}.cls-130{fill:#184447;}.cls-131{fill:#c2cbe2;}.cls-132{fill:#b4c1dc;}.cls-133{fill:#b1bfdb;}.cls-134{fill:#abb9d6;}.cls-135{fill:#9dafd2;}.cls-136{fill:#b6c2d9;}.cls-137{fill:#e2e6ef;}.cls-138{fill:#cacede;}.cls-139{fill:#244a9f;}.cls-140{fill:#134241;}.cls-141{fill:#f6f0f3;}.cls-142{fill:#3b4c8f;}.cls-143{fill:#154546;}.cls-144{fill:#cccfe4;}.cls-145{fill:#0f413d;}.cls-146{fill:#a6b7d4;}.cls-147{fill:#b5c3dd;}.cls-148{fill:#bbc4db;}.cls-149{fill:#063d37;}.cls-150{fill:#cacde5;}.cls-151{fill:#d6d8e6;}.cls-152{fill:#dfdfec;}.cls-153{fill:#cacfe3;}.cls-154{fill:#d5d7e8;}.cls-155{fill:#bac5de;}.cls-156{fill:#bfc7de;}.cls-157{fill:#a7b7d4;}.cls-158{fill:#c5cbe2;}.cls-159{fill:#d0d4e7;}.cls-160{fill:#b9c4dd;}.cls-161{fill:#134540;}.cls-162{fill:#bac4dd;}.cls-163{fill:#194744;}.cls-164{fill:#aab8d2;}.cls-165{fill:#01352f;}.cls-166{fill:#02302c;}.cls-167{fill:#4d6d6d;}.cls-168{fill:#c6cce4;}.cls-169{fill:#7181b0;}.cls-170{fill:#f4ecf3;}.cls-171{fill:#d2d4e5;}.cls-172{fill:#11403b;}.cls-173{fill:#aab9d6;}.cls-174{fill:#1d494a;}.cls-175{fill:#355f69;}.cls-176{fill:#b2bfdb;}.cls-177{fill:#345c60;}.cls-178{fill:#bdc5dd;}.cls-179{fill:#cdd6ec;}.cls-180{fill:#0a3837;}.cls-181{fill:#083e39;}.cls-182{fill:#f0ebf7;}.cls-183{fill:#2a565d;}.cls-184{fill:#b1bddb;}.cls-185{fill:#0b3f3c;}.cls-186{fill:#96abd0;}.cls-187{fill:#dae0ee;}.cls-188{fill:#a4b5d5;}.cls-189{fill:#305558;}.cls-190{fill:#e7e0f6;}.cls-191{fill:#9db2dd;}.cls-192{fill:#94aacf;}.cls-193{fill:#e1e0ee;}.cls-194{fill:#d5d7e7;}.cls-195{fill:#d0d4e8;}.cls-196{fill:#91a8cd;}.cls-197{fill:#073d38;}.cls-198{fill:#1b4a47;}.cls-199{fill:#d0d4e6;}.cls-200{fill:#d1d5e8;}.cls-201{fill:#dcdcea;}.cls-202{fill:#bfc8df;}.cls-203{fill:#cfd3e6;}.cls-204{fill:#d4d6e8;}.cls-205{fill:#0f423d;}.cls-206{fill:#b4c0d9;}.cls-207{fill:#a6b6d1;}.cls-208{fill:#c4cae1;}.cls-209{fill:#e8e5f3;}.cls-210{fill:#a8b7cf;}.cls-211{fill:#dfe0ed;}.cls-212{fill:#1b494a;}.cls-213{fill:#a5b6d0;}.cls-214{fill:#ccd1e5;}.cls-215{fill:#e2e1ee;}.cls-216{fill:#d9dae7;}.cls-217{fill:#124340;}.cls-218{fill:#fefdfe;}.cls-219{fill:#bbc4dd;}.cls-220{fill:#b8c2da;}.cls-221{fill:#083d38;}.cls-222{fill:#cad0e2;}.cls-223{fill:#b7c2d9;}.cls-224{fill:#c1c8de;}.cls-225{fill:#d8d9e8;}.cls-226{fill:#d1d4e3;}.cls-227{fill:#c1c9df;}.cls-228{fill:#c2cae2;}.cls-229{fill:#dfdfee;}.cls-230{fill:#fbf3f9;}.cls-231{fill:#e3e1ea;}.cls-232{fill:#a9b7d3;}.cls-233{fill:#c8cfe2;}.cls-234{fill:#a9b8d5;}.cls-235{fill:#eeeef2;}.cls-236{fill:#bfc9e4;}.cls-237{fill:#ededfc;}.cls-238{fill:#becdcb;}.cls-239{fill:#0d3936;}.cls-240{fill:#d7d8e7;}.cls-241{fill:#224e4a;}.cls-242{fill:#dee0f6;}.cls-243{fill:#cbd0e1;}.cls-244{fill:#02312e;}.cls-245{fill:#0a3f3a;}.cls-246{fill:#e7e6f3;}.cls-247{fill:#b5c1da;}.cls-248{fill:#e9e4f3;}.cls-249{fill:#edeaf3;}.cls-250{fill:#d3d6e8;}.cls-251{fill:#053a33;}.cls-252{fill:#1a4b47;}.cls-253{fill:#e5e6f3;}.cls-254{fill:#c5cce1;}.cls-255{fill:#adbcd8;}.cls-256{fill:#bec7dd;}.cls-257{fill:#a2b3d3;}.cls-258{fill:#e4e0f2;}.cls-259{fill:#184844;}.cls-260{fill:#d2d5e6;}.cls-261{fill:#d8d9e9;}.cls-262{fill:#10433e;}.cls-263{fill:#c3c9e0;}.cls-264{fill:#f6f0f5;}.cls-265{fill:#e0deeb;}.cls-266{fill:#b6c1db;}.cls-267{fill:#b3bdd9;}.cls-268{fill:#9fafcf;}.cls-269{fill:#e5e1f2;}.cls-270{fill:#05372f;}.cls-271{fill:#e0dfeb;}.cls-272{fill:#cbd1e4;}.cls-273{fill:#d5d6e6;}.cls-274{fill:#cfd2e6;}.cls-275{fill:#f5eff6;}.cls-276{fill:#eee9f2;}.cls-277{fill:#a8b8d2;}.cls-278{fill:#103f46;}.cls-279{fill:#093e39;}.cls-280{fill:#cbcde4;}.cls-281{fill:#d3d6e5;}.cls-282{fill:#134542;}.cls-283{fill:#103d3c;}.cls-284{fill:#e8e6f3;}.cls-285{fill:#95aac8;}.cls-286{fill:#d6d6e9;}.cls-287{fill:#e5e3ee;}.cls-288{fill:#325857;}.cls-289{fill:#174343;}.cls-290{fill:#083b35;}.cls-291{fill:#2a506a;}.cls-292{fill:#3a6178;}.cls-293{fill:#f4edf8;}.cls-294{fill:#d1d4e6;}.cls-295{fill:#ccd1e3;}.cls-296{fill:#2b5352;}.cls-297{fill:#c0cadf;}.cls-298{fill:#e3e0eb;}.cls-299{fill:#d4d6e5;}.cls-300{fill:#deddec;}.cls-301{fill:#bdc8dc;}.cls-302{fill:#e6e3ef;}.cls-303{fill:#e1dfed;}.cls-304{fill:#0d413c;}.cls-305{fill:#e7e5f5;}.cls-306{fill:#e2e0e9;}.cls-307{fill:#eae8f0;}.cls-308{fill:#fafbfc;}.cls-309{fill:#13423f;}.cls-310{fill:#14413f;}.cls-311{fill:#02342b;}.cls-312{fill:#f1ebf3;}.cls-313{fill:#ccd1e4;}.cls-314{fill:#2a514f;}.cls-315{fill:#eeeaf4;}.cls-316{fill:#fdf8fe;}.cls-317{fill:#c9cfe2;}.cls-318{fill:#04352e;}.cls-319{fill:#dcdcec;}.cls-320{fill:#013226;}.cls-321{fill:#dbdbe9;}</style></defs><title>Zasób 1</title><g id="Warstwa_2" data-name="Warstwa 2"><g id="Warstwa_1-2" data-name="Warstwa 1"><path class="cls-1" d="M78,14.08c-1.32-2.16-5.53-3-3.08-6.88.68-1.95-.73-4.24,1-6l.52.36c.59.76.83,1.85,1.94,2.16a5.45,5.45,0,0,1,2.43,2,7.07,7.07,0,0,1,.75,1.13A5.7,5.7,0,0,1,82,8.1a11.64,11.64,0,0,1-.86,5.63C80.24,15.3,79.29,16.38,78,14.08Z"/><path class="cls-2" d="M79.85,6.15,78,4.23c-1.24-.63-.86-2.19-1.74-3l-.35,0c2-2.52,3.07-.42,4.32.85C81,3.48,81.33,4.89,79.85,6.15Z"/><path class="cls-3" d="M63.82,34.17c.67-2.66,1.2-5.93,4.55-1.93,1.72,2.06,4-.78,5.6,1A2.47,2.47,0,0,1,75.84,36a3.7,3.7,0,0,1-.46,1.36,3.86,3.86,0,0,1-2.44,1.36,9.13,9.13,0,0,1-3.17-1c-.87-1.05-2.07-1.09-3.31-1C65.18,36.26,63.66,36.1,63.82,34.17Z"/><path class="cls-4" d="M75,29.13c.13-1.5-.77-1.52-2-1.83-3.27-.81-1.44-2,0-3.1,1.24-2.49,2.94-1.44,4.62-.62a11.86,11.86,0,0,1,3.27,1,4.11,4.11,0,0,1,1,1,4.25,4.25,0,0,1,.68,3.37,2.93,2.93,0,0,1-1.28,1.54,10.53,10.53,0,0,1-4.52.46C75.8,30.74,75.48,29.88,75,29.13Z"/><path class="cls-5" d="M78,14.08c1.18.94,2.34,1.81,2.34-.78,2,0,3,1.83,1.86,2.69-2.17,1.7.44,2.21.31,3.25a2.61,2.61,0,0,1-2.92,2.56,5.37,5.37,0,0,1-2.25-1.37c-1.22-1.06-2.92-.1-4.19-1-.68-.74-1-1.49-.11-2.3C75.35,17.2,75.09,13.13,78,14.08Z"/><path class="cls-6" d="M76.93,30.36c1.17-.18,2.26-1.76,3.53-.19,2.45-.63,3.17,1.12,3.91,2.84.06,1.89-1.14,2.69-2.72,3.16-2.21.1-4.45,2.24-6.65,0,.33-1.2-.41-2-1-2.87.18-1.07-.17-2.3.89-3.12a3.19,3.19,0,0,1,1,1c.36.53,1.16,1.34,1.32,1.16C77.69,31.72,76.56,31.1,76.93,30.36Z"/><path class="cls-7" d="M73,17.17c.22.72,0,1.64.92,2a2.61,2.61,0,0,1,.19,2.59,3.71,3.71,0,0,1-1.25,1.57A10.79,10.79,0,0,0,70.61,21c-1.63-.88-4.27-1.45-3.1-3.72S71.14,16.15,73,17.17Z"/><path class="cls-8" d="M76.93,30.36,80,32.5c-3.37,2.2-3.71,2-5.16-2.37l.18-1Z"/><path class="cls-9" d="M72.9,23.38,73,21.2a3,3,0,0,1,4.44.75,2.81,2.81,0,0,1-.32,3.18c-1.21-1-2.33-2.38-4.09-.92A1.93,1.93,0,0,1,72.9,23.38Z"/><path class="cls-10" d="M13.73,240.09c-2-.1-1.92-1.47-1.7-2.89,7.29-3.93,15.24-4.65,23.32-4.74a2.46,2.46,0,0,1,1,.9c.55,2.47-1.14,3-3,3.64-3.14,1.15-6.55.57-9.68,1.67A12.31,12.31,0,0,1,13.73,240.09Z"/><path class="cls-11" d="M35.87,233.24c-8.06.62-16,2.3-23.84,4C11.75,235,13.85,234.93,15,234l1-.83a4.9,4.9,0,0,1,1.07-.91c3.14-1.53,7-.52,9.94-2.68a5.4,5.4,0,0,1,1.46-.24c2.62.66,5.74-.18,7.7,2.5A1.27,1.27,0,0,1,35.87,233.24Z"/><path class="cls-12" d="M1.94,251.16l.14-2.84c1.57-1.74,2.52-4.09,4.95-5,2.07.39,3.94-.42,5.86-1l1-.1c.89.64,2.12.91,2.39,2.23a5,5,0,0,1-3.62,4.34A45.64,45.64,0,0,0,4,252.74C2.37,253.72.9,254,1.94,251.16Z"/><path class="cls-13" d="M15.95,244.09c-1.5.32-2.1-.37-2-1.8,1.42-.86-.12-1.47-.18-2.2,3.22-1.59,7.07-.94,10.19-2.86a3.26,3.26,0,0,1,1.65,2.95,2.13,2.13,0,0,1-1.23,1.59,4.13,4.13,0,0,1-1.31.19c-1.4-.17-2.82-.66-4.19.16C17.8,242.66,17.11,243.73,15.95,244.09Z"/><path class="cls-14" d="M12.89,242.4c-1.81,1.23-3.41,3.68-5.86,1A6.64,6.64,0,0,1,12.89,242.4Z"/><path class="cls-15" d="M73.62,49.55c-.9-1.33-6.81-.63-1.77-4.37,1.67-1,3.23-2.22,4.85-3.34a3.77,3.77,0,0,1,1.36-.24,10.65,10.65,0,0,1,3.39,1c2.25,1.45,3.09,3.05.55,5-2.06.56-2,2.78-3.14,4.05a3.2,3.2,0,0,1-2.72.29C74.92,51.54,74.32,50.49,73.62,49.55Z"/><path class="cls-16" d="M73.62,49.55c1.76-.83,1.55,1.16,2.38,1.66a5.43,5.43,0,0,1,1.74,3.15,2.94,2.94,0,0,1-.59,2.12,3,3,0,0,1-2.9.41,2.25,2.25,0,0,1-1.34-1.74c.52-2.06-1.15-3.3-1.84-4.9Z"/><path class="cls-17" d="M77.78,42.34l-.44,0-.43.11c-1.63.26-3.27.71-4.86-.18,0-.7-1.32-1.27-.2-2.07.68-.51.29-1.58,1.07-2,.38-1,1.16-.94,2-.77,2,.9,3.72,2,4.38,4.23C79,42.34,78.66,42.83,77.78,42.34Z"/><path class="cls-18" d="M72,42.22c1.68-1.47,3.28-.89,4.86.18-.94,2.29-2.58,3.32-5.07,2.77Z"/><path class="cls-19" d="M72.92,38.11c0,.87-.06,1.7-1.07,2-1.37-1.6-3.22-.77-4.86-1l1.08-1.82a1.25,1.25,0,0,1,1.92-.3Z"/><path class="cls-20" d="M65,88.36c-.49-2.57,1.34-3.36,3.54-3.82-.62-1.94-4.58-1.4-2.68-4.29,1.1-2.29,3.63-1.53,5.35-2.51.84-.06,1.45.6,2.23.74.06-1-.7-1.76-.94-2.67a6.18,6.18,0,0,1-.34-1.21C72,73.84,72,73,71.27,72.48a4.12,4.12,0,0,1-2.06-2.31,3,3,0,0,1,.32-2,4.49,4.49,0,0,1,1-.94c1.77-2.32,4.86-2.77,6.81-4.84a24.46,24.46,0,0,1,3.77-2.5,2.2,2.2,0,0,1,1.77.85,5.26,5.26,0,0,0,5.42,3.82c1.78,0,4-.19,4.94,2.12-1.17,2.51-3.79,1.56-5.67,2.37-1.71.46-3.75-.32-5.17.89-1,.88-3.82,2.58.3,3.26a38.08,38.08,0,0,1,4.53.39,5,5,0,0,1,1.84.8c1.33.91,2.85,1.7,2.52,3.73a6.53,6.53,0,0,1-1.9,2.94c-4,.74-7.88,1.73-9.43,6.22C77.67,89,74.13,85,71.93,88.73c-1,.85-1.72,2-2.78,2.89a3.72,3.72,0,0,1-1.33.43,3.13,3.13,0,0,1-3.19-2.37A1.55,1.55,0,0,1,65,88.36Z"/><path class="cls-21" d="M50,77.06c1.88-1.55-.35-4.44,1.91-5.86,1.81-1.58,4.15-.18,6.09-1.08,1.67.48,3.14,2.2,5.12.86a1.52,1.52,0,0,1,1.5,1.23c-.16,4.4-4.22,2.31-6.18,3.73-1.14.45-2.44.46-3.43,1.3a3.74,3.74,0,0,1-2.19,1C51.48,78.85,50.07,79.67,50,77.06Z"/><path class="cls-22" d="M54,76.27c1-1.57,2.57-1,4-1.13,4.64-.18,9.64-1.85,13.07,3.1-1,2.7-3.79.52-5.22,2-1.58.27-1.88-1.39-2.93-1.93-1.65.49-3.32,1.34-4.9-.19l0,0C57,76.84,54.94,77.79,54,76.27Z"/><path class="cls-23" d="M65,88.36q.05.34.09.68c.18,3.33-3.18,3.22-4.72,4.88a3.38,3.38,0,0,1-1.94,0c-.91-1-2.9.13-3.4-1.7-.08-2.91,2.4-3.58,4.22-4.83C60.91,88.92,62.88,89,65,88.36Z"/><path class="cls-24" d="M54,76.27c1.93-.61,3.69-.84,4.05,1.89-1.74-.59-3.46,3.2-5.21,0Z"/><path class="cls-25" d="M58,78.13l4.9.19a17.15,17.15,0,0,1-3.3,2C57.18,81.14,57,80,58,78.13Z"/><path class="cls-26" d="M61.26,56.14c-1.29-.09-2.91,0-3.11-1.63s1.48-2.39,2.53-3.34a2.44,2.44,0,0,1,3.55,0A15.23,15.23,0,0,1,66.07,54C65.53,57.15,63.63,57.17,61.26,56.14Z"/><path class="cls-27" d="M61.26,56.14c1.7-.48,3.56-.61,4.81-2.11L70,55.23a2.22,2.22,0,0,1,1.49,2.91,2.48,2.48,0,0,1-2.3,1.44C67,58.18,64.48,58.24,62,58.17l-1.17-1Z"/><path class="cls-28" d="M71,58.17l-1-2.94a3,3,0,0,1,3-.08l1,.92a3.17,3.17,0,0,1-.45,1.79,3,3,0,0,1-1.86,1.61C71,59.25,70.48,59,71,58.17Z"/><path class="cls-29" d="M71.84,59.19c.16-.77.25-1.58,1.17-1.87a3.29,3.29,0,0,1,1.06.7c.83,1.88,4.26,1.37,3.95,4.29-.33,2,.59,5.06-3.52,2.92C72.4,64.14,74,69.38,71,68a12.1,12.1,0,0,0-5.34-2c-1-.09-2.37-.36-1.77-2.06l2-.84C67.35,61.06,69.88,60.55,71.84,59.19Z"/><path class="cls-20" d="M71.84,59.19c-.45,3.61-3.46,3.4-5.94,4-.55-1.34-2.14-.61-2.95-1.48L66.87,60A1.93,1.93,0,0,1,69,59.59L71,58.17Z"/><path class="cls-30" d="M63.87,64c1.8,2.35,6.22.06,7.11,4l-1.09.31c-2-1.84-6.59.54-6.92-4.14A5.11,5.11,0,0,1,63.87,64Z"/><path class="cls-31" d="M69,59.59c-.6.77-1.38.55-2.16.38-1.29-1.48-3.75.18-4.86-1.8C64.68,57,67.28,56.25,69,59.59Z"/><path class="cls-32" d="M15.95,244.09a3,3,0,0,1,2-3,3.37,3.37,0,0,1,2.58,2,7.78,7.78,0,0,1-.22,4c-1.89,2.7-5.28,3-7.76,4.78-1,.74-1.56,1.29-1.35,2.5-.84,1.13-2.29,1.12-3.35,1.84-1.29.72-2.3,2-3.91,2l-1.92,1a3,3,0,0,1-2-3c1.73-1.27.26-3.76,1.94-5,2,1.9,3-.81,4.11-1.33C9.47,248.22,14.11,248.43,15.95,244.09Z"/><path class="cls-33" d="M76.23,1.2C78,1.51,78,2.88,78,4.23c-.47.38-1.31,1.11-1.34,1.08C75.47,4.06,76.11,2.61,76.23,1.2Z"/><path class="cls-34" d="M35.87,233.24a2.77,2.77,0,0,0-.14-.95A3.21,3.21,0,0,1,38,230.57c2.34-.07,4.7-.9,7,.2.93.79,1,1.95,1.38,3,.51,1.66,1.32.78,2.06.14,1-.9,2-1.75,2.87-2.72,1.5-1,3.08-1.31,4,.52s2,1,3.07.4c3.46-1.24,5.79-4.71,9.74-5a3.36,3.36,0,0,1,.67,1.29c.08,3.15-.57,5.94-3.79,7.38a9.21,9.21,0,0,1-1.2.66c-2.44,1-3.24,3.38-4.64,5.28-4.12.77-7.69,3.17-11.74,4-2,.42-2.42,2-4,3.49,2-.08,3.6-.41,4.8.83,1.06,3.62-1.91,4.57-4,6.08a11.26,11.26,0,0,0-5.53,6.32C37.87,264,37,265.34,35,265.12c-4.18,1.68-4.32-3.25-6.89-4.2-1.66-2.63-2.38-5.37-1-8.35.47-2.52.23-6,4.55-3.6a2,2,0,0,0,1.49-.4,3.7,3.7,0,0,0,.85-1.34c.24-1.16,0-2.41.67-3.48,1.15-1.66,3.37-1.52,4.72-2.83.91-1.69-.29-2.21-1.5-2.71-2.48-.93-.9-3.45-1.95-4.94Z"/><path class="cls-35" d="M35,248.34l-1,1.14c-1.33-.21-1.48,1.06-2.13,1.69-1.8.1-1.65-1.68-2.61-2.74l-2.24,4.12c-2.05-4.2-2.65,1-4.11.64-1.36-.9-1.41-2.36-1.62-3.76,0-2.39,3.15-3.2,2.91-5.73a2.79,2.79,0,0,1,.81-1.07c2.48-1.39,5.91-.23,7.9-2.94,1.59-2.44,4.4-.59,6.34-1.83,2.39.78.56,3,1.42,4.27-1.18,2.57-4.23.16-5.65,2.11C33.33,245.58,36,247,35,248.34Z"/><path class="cls-36" d="M22,249.16c1.34,1.09.36,2.78,1,4,1.81,5.55-2.25,6.69-6,8-.92-.27-2.34.5-2.65-1-.2-1,1-.87,1.59-1.31.91-2.22,2.54-4.11,3-6.53C19.68,251.09,19.63,249,22,249.16Z"/><path class="cls-37" d="M92.85,268.16,91,269.44c-3.29.72-6.5,2.55-10,.76a4.37,4.37,0,0,1-2.13-.15c-1.47,2.65-3.62,1.76-5.72,1.08-2.27-1.89-4.15-3.3-7.58-1.28-3,1.75-7.3-1.55-10.59,1.37-1.76-.4-4.14,1.1-5.14-1.67a2.54,2.54,0,0,1,.14-2.66c1.54-1.2,3.24-2.27,3.81-4.33a3.54,3.54,0,0,1,1.68-1.93c1.19-.52,2.4.21,3.58-.05a10.24,10.24,0,0,0,1.9-4.47c.65-3,1.57-5.51,5.31-5.5.32,0,.5-.78.63-1.25,1.15-2.48-2.08-5.22.42-7.62a58.19,58.19,0,0,1,5.6-3.86c3.05,0,4.73,2.63,7.17,3.79,1.07,2.2,2.72,3.33,5.25,2.83a3.37,3.37,0,0,1,1.19.64c1.23,1.12,1.86,3.89,4.35,1.59,2.2-1,4.28-1.14,6.06.82-.89,1.63.56,2.84.78,4.28.56,1-2.19,1.46-.46,2.7,1.21,2.32,3.46,4.8-.94,6.27a3.51,3.51,0,0,1-1.86-1.07c-3.92-6.24-3.92-6.24-9.6-4.82-2.64-.58-4.78-2.48-7.51-2.82-1.13-.46-1.72-1.51-2.53-2.29a1.08,1.08,0,0,0-1.3.37c-1.74,2-.94,3,1.18,4.07,2.44,1.18,5.39,2.22,4.63,6-2.66,4.45,1.5,4.06,3.61,5.08,1.2-1.08.95-3.24,2.81-3.81a3.56,3.56,0,0,1,2,0c1.8.63,2.68,2.4,4.19,3.39a3.72,3.72,0,0,1,1.45,1.45A1.5,1.5,0,0,1,92.85,268.16Z"/><path class="cls-38" d="M22,249.16l-2,4c-1.91,1-2.6,3.57-5,4l-2-1c-1.81.34-1.89-.93-2-2.16-.66-.79-1.51-1.09-.17-2.51,2.61-2.78,6.6-2.82,9.2-5.36,1.53-.92,2.41-3.42,4.9-2C27.18,247.74,22.49,247.24,22,249.16Z"/><path class="cls-39" d="M15,257.2c.54-2.73,2.24-4,5-4a7.4,7.4,0,0,1-4,5.76Z"/><path class="cls-39" d="M10.95,254.08l2,2.16c-1,2-1.83,4.55-4.76,2-.63-.34-.44-.93-.49-1.46s-.54-1.13-.76-1.71C8,253.75,9.57,254.23,10.95,254.08Z"/><path class="cls-40" d="M9,257.18l-.77,1-2.25,1.06.12-.42c-1.07-1.56.06-2.32,1.2-2.85C8.24,255.55,9.1,255.78,9,257.18Z"/><path class="cls-41" d="M51,267.2l-1.15,2.35c-.67-.73-.36-2.15-1.7-2.4.62-2.68-3.35-2.47-3.09-4.92,1.16-2.44,3-2.41,5.1-1.38C51.63,262.8,52.43,264.85,51,267.2Z"/><path class="cls-42" d="M49.88,261.25c-1.84-.8-3.28.41-4.84,1a9.82,9.82,0,0,0-4.07,4c-5.15,1.64-2-2.83-3.11-4.2.27-3.34,2.22-5.37,5.15-6.65a31.54,31.54,0,0,0,17.4-7.08c4.19-3.47,5.84-3.27,7.71,1-.31,1.57.28,3.67-1.17,4.56-1.69,1-1.86-1.85-3.85-2.36.83,4-1.86,6.84-1.88,10.4,0,1.37-1.11,1.39-2.17,1.11-.09-2-1.14-2.66-3-2.11-1.06.45-.94,1.46-1.11,2.33C52.47,264.54,51.94,260.91,49.88,261.25Z"/><path class="cls-43" d="M9,257.18c-2.22-1.62-2.52.08-2.9,1.67a1.56,1.56,0,0,1-2.18-.66L6.94,255c1.15.18,2.65-.95,3.37.58C10.66,256.34,9.8,257,9,257.18Z"/><path class="cls-44" d="M96,260.1c1.57.49,2.65,0,2.14-1.72a24,24,0,0,0-2.07-4.14,4.58,4.58,0,0,1,3.44-1.19c3.36.28,4.68,3.45,7.12,5,1.62,1,2.66,3,4.86,3.13,2.76,3.26,2.83,4.45.3,5.1h-.6c-1.19.18-2.4.24-3.59.4a3.49,3.49,0,0,1-1.18-.11,1.54,1.54,0,0,1-1-1.16c-.79-.56-.78.85-1.45.62-1.22.22-2.33.15-3-1.05l-2-.8q-1.85-.32-3.71-.56a1.74,1.74,0,0,1-.84-1A2.11,2.11,0,0,1,96,260.1Z"/><path class="cls-45" d="M95,263.2c1.67-1,3.11-1.06,4,1-1.23,2.58-4.43,2.09-6.13,3.94l.08-1.85C91.84,264.1,93,263.41,95,263.2Z"/><path class="cls-46" d="M105.91,265.41l1.06.92c.82.31,1.47.71.85,1.73L106,268c-1.65-.91-3.65.8-5.23-.68-1.59-.94-1-1.67.23-2.33,1.33.67,2.66.11,4,0C105.47,264.72,105.79,264.82,105.91,265.41Z"/><path class="cls-47" d="M104,268.39q0,.4,0,.81c-1.1,0-2.2,0-3.3,0-.54,0-.79-.35-.32-.79.21-.19.58-.21.88-.3C102.2,267.69,103.17,267.32,104,268.39Z"/><path class="cls-48" d="M104,268.39l-2.73-.33a4,4,0,0,0-.48-.71c1.79-.13,3.6-.47,5.23.68Z"/><path class="cls-49" d="M78.92,41.36c-1.36-1.32-4.27-1.07-4-4L75,36.13c2.38,1.89,3.67-2.64,6-1,1,1.77,3.86,2.67,2.6,5.53C82.29,42.54,80.69,42.49,78.92,41.36Z"/><path class="cls-50" d="M70,37.08l-1.92.3c-.59-.21-1-.53-.94-1.26C68.83,34.21,69.71,34.75,70,37.08Z"/><path class="cls-51" d="M77.1,25.13l-.22-3c-.84-1.37-.4-2.31,1-3,1,.46,1.1,1.37,1.23,2.28,1,.71,2.38,1,2.65,2.47a2.49,2.49,0,0,1-.61,2.1C80,24.92,78.49,25.24,77.1,25.13Z"/><path class="cls-52" d="M81.12,26.06l-.28-2.8c2.67-2,3.79,0,4.93,1.94a.32.32,0,0,1,.5-.06l-2,1.94c-1-.41-2,0-3-.52A.73.73,0,0,1,81.12,26.06Z"/><path class="cls-53" d="M85.78,25.21c-1.45-1.15-2.86-2.37-4.93-1.94-1.1-.09-1.81-.56-1.76-1.78a3.94,3.94,0,0,0,3-2.36C84.55,20.43,85.29,22.74,85.78,25.21Z"/><path class="cls-54" d="M77.86,19.21l-1,3a6.75,6.75,0,0,0-3.91-1l1-2C75.26,18,76.56,17.5,77.86,19.21Z"/><path class="cls-55" d="M84.13,33.29c3.58-1.12,3,3.94,5.82,3.92a4.21,4.21,0,0,1-2.14,2.69,4.93,4.93,0,0,1-3.54.29A6.69,6.69,0,0,1,83,39.43c.54-2-4.09-1.59-2-4.32C82.62,35.49,83.38,34.39,84.13,33.29Z"/><path class="cls-56" d="M39,238.21c-1.15,2.31-4.13,0-5.35,2.13-2.84-.48-5.84,2.77-8.56-.36l-1.14-2.75c3.09-1.35,6.52-.49,9.74-1.53,1.59-.52,2.12-1,2.28-2.44,1.8.76.57,3.79,3,4q.52.3.35.61C39.21,238.11,39.09,238.21,39,238.21Z"/><path class="cls-34" d="M28.08,230.07c.1-1.17,5.31-1.92.25-3.69-.66-.23,1.25-2,1.64-3.19a2.06,2.06,0,0,0,0-2.3,4.22,4.22,0,0,1-.63-1.75,4.68,4.68,0,0,1,.78-2.39c.85-1.42,1.93-2.69,2.75-4.13s0-2.91.73-4.24c1.35-1.59,3-2.13,4.87-1.11,4.89,2.65,5.45,2.57,8.9-1.74a3.25,3.25,0,0,1,.74-.66c2-.62,3.6.23,5.17,1.29a3.46,3.46,0,0,1,.44,1.33,9.34,9.34,0,0,1-1,4.07c-.95,1.84-3.06,1.65-4.51,2.6a5.6,5.6,0,0,0-1.44,2c-.7,1.92-.1,4.12-1.26,5.93-1.56,1.77-3.83,2.43-5.72,3.68-1.09.54-2,1.23-1.7,2.66a9.3,9.3,0,0,1-.17,3.06l-2.24.76C33.5,230.43,30.3,231.94,28.08,230.07Z"/><path class="cls-57" d="M16.71,233.13c2.55-4,5.92-5.23,10.29-3C24.54,234.47,20,231.68,16.71,233.13Z"/><path class="cls-58" d="M25.06,240a6.12,6.12,0,0,0,5.63-.76c1.7-1.17,2.23.06,2.94,1.13-1.53,5.08-5.68,2.13-8.64,2.82-.95-.3-1.48-.85-1.13-1.92Z"/><path class="cls-59" d="M23.86,241.25,25,243.16l-.12,1c-2.14-.55-2.44,3.34-4.9,2-1.05-1,.24-2,0-3-.2-2.46,1.69-1.78,3-2Z"/><path class="cls-60" d="M23,241.23l-3,2a3.76,3.76,0,0,1-2.07-2.15A3.89,3.89,0,0,1,23,241.23Z"/><path class="cls-61" d="M77,54.38c-1.83-.59-1.14-2-1-3.18l3.09-.05a2.16,2.16,0,0,1,2-.55,4.63,4.63,0,0,1,3.35,3.51A2.22,2.22,0,0,1,84,55.44C81.45,56.68,79.16,55.94,77,54.38Z"/><path class="cls-62" d="M81,51.37l-1.93-.21C77.45,48.54,78,47,81.25,47c.29,1.56,3,1,2.71,3.06C83.47,51.62,82.44,51.95,81,51.37Z"/><path class="cls-63" d="M85.1,40.26c.1,3.07-2.56,2.42-4.21,3.13-1.12-.11-2.46.45-3.11-1l1.14-1c1.27-.86,4,1.29,4.12-1.93a1.14,1.14,0,0,1,1,0A1.57,1.57,0,0,1,85.1,40.26Z"/><path class="cls-64" d="M77,54.38c2.37-.66,4.5.72,6.79.76,2.44.94,1.62,2.85,1.39,4.6a3.07,3.07,0,0,1-1.36,1.85,1.46,1.46,0,0,1-1.87-.94,1,1,0,0,1-.43-.44c-1.08-1-2.48-.34-3.68-.74-1.09-1-1-2.25-.84-3.54Z"/><path class="cls-65" d="M77,55.93A3.64,3.64,0,0,1,78.41,59c-2.2,2.12-3.73.41-5.34-.92a2.83,2.83,0,0,0-.07-.78l1-1.24Z"/><path class="cls-21" d="M94,79.22l2,.92c1,.29,2,.62,1.78,1.89-.38,2.14-2.24,2-3.81,2.3a29.27,29.27,0,0,0-3.66,2.09c-2.22.95-4.28,2.33-6.8,2.48-1.52-.2-3.1-.3-3.9-1.94S77.85,83.45,81,83.1c.58-.06,1.7.13,1.59-.64-.69-5.08,2.4-2.13,3.89-1.72a2.66,2.66,0,0,0,2.67-.52C90.67,79.52,92.42,79.87,94,79.22Z"/><path class="cls-66" d="M91.59,70.44c.65,1.62-.48,2.25-1.6,2.9a3,3,0,0,1-2.74.43c-1.4.62-2.84-.38-4.24.12-1.29,1.25-2.9,1.8-4.46,1-1.14-.6-.44-1.72.27-2.43,1.56-1.56,1-5.31,4.51-4.76,1.26.19,2.43.91,3.76.36Z"/><path class="cls-45" d="M96.61,61.09c-3.29.1-4,2.19-3.77,4.95-2.95-.15-5.92-.1-8.83-.5-3.08-.42-.42-3.64-2.08-4.89l2,.19c.84-.51,1.92-.56,2.62-1.36,1.75-2.81,4.15-2.34,6.66-1.35,1.3.65,2.89.74,3.91,1.94Q97.58,61,96.61,61.09Z"/><path class="cls-67" d="M71,78.25C67,76.08,62.45,75.7,58,75.14c1-3.06,5.57,1,6-3.07,1.32-.67,2.2-2.23,4-1.94a.43.43,0,0,0,0,.5,12.17,12.17,0,0,0,5.44,4.44c2.45,1.73,2.13,4.06,1.43,6.6Z"/><path class="cls-68" d="M68,91.37q.46-.12.94-.19c5.41-3.5,10.64-1.39,15.88.49A1.67,1.67,0,0,1,85.33,93c-1.69,3.76-4.52,3-7.46,1.91-2.3-.07-4.59-.29-6.89-.38a5.79,5.79,0,0,1-2.75-.71,2.11,2.11,0,0,1-.78-1.18A1.77,1.77,0,0,1,68,91.37Z"/><path class="cls-69" d="M84.94,92.2c-5.34-.34-10.57-2.51-16-1a3.41,3.41,0,0,1,2-3.18c4.85-2.09,9.32.62,14,1.09A1.93,1.93,0,0,1,84.94,92.2Z"/><path class="cls-70" d="M84,89.14c-4.44.35-8.78-.48-13.13-1.14,2.37-4.9,5.67-1.84,8.71-1l4.11,1.25q.5.18.46.53T84,89.14Z"/><path class="cls-71" d="M73.08,58.1c1.76.43,3.42,1.4,5.34.92,1.48-.77,2.62-.68,3.09,1.19-.37,2-1.14,3.38-3.49,2.11C76.79,60.42,73.13,61.37,73.08,58.1Z"/><path class="cls-72" d="M73.41,75.08c-3.42.49-5.82-.27-5.44-4.44l1.72-.36c.88,1,2.14.84,3.27,1.09.57.93-1.07,1.93.09,2.85A1.17,1.17,0,0,1,73.41,75.08Z"/><path class="cls-73" d="M68,91.37q0,.41,0,.83c-1.27,1.62-3.42,1.11-5,2a3.71,3.71,0,0,1-2,.48c-.75-.21-1.25-.6-1.13-1.47.83-2.53,4.21-1.9,5.2-4.22C66.2,89.59,66.2,91.6,68,91.37Z"/><path class="cls-74" d="M94,79.22c-1,3.38-3,1.7-4.82,1,.35-1,.75-1.87,1.92-2.09C92,78.46,93.28,78.11,94,79.22Z"/><path class="cls-75" d="M83,73.9c1.22-1.14,2.71-.58,4.09-.63q.41.33.27.66t-.29.32C85.51,76.81,84.4,73.67,83,73.9Z"/><path class="cls-76" d="M73.05,74.22c-3.58-.83-.7-1.88-.09-2.85C74.3,72.25,74.3,72.25,73.05,74.22Z"/><path class="cls-77" d="M87.09,74.24a1.81,1.81,0,0,1,0-1l2.88.08a1.93,1.93,0,0,1-1.9,1.89Z"/><path class="cls-78" d="M58,70.11c-1.48,3.42-4.08.59-6.09,1.08C53.54,68.42,55.62,68.36,58,70.11Z"/><path class="cls-79" d="M68,70.14c-1,1.23-2,2.63-4,1.94L63.14,71C64.79,70.84,66,68.29,68,70.14Z"/><path class="cls-80" d="M111.51,261.21c-3.1,1.58-4.64-1.1-6.53-2.53a65.7,65.7,0,0,1-5-4.65c-1-.6-2.24-.78-3-1.84.1-1.3-2.31-2.59,0-3.91a4.39,4.39,0,0,1,1.4-2.92,2.92,2.92,0,0,1,1.83-.8c1.42,0,2.45,1,3.68,1.39,1.42-1.53.46-3.09.12-4.62-.33-1.34-.79-2.67-.3-4.06a2.34,2.34,0,0,1,1.16-.69c2.8-.19,4.65,2.36,7.32,2.51a4.37,4.37,0,0,0,1.11-.2c1.11-.92,1.24-2.67,2.76-3.22,3.67,1,3.91-2.32,5.34-4.17,3.66-1.36,5.9.32,7.46,3.46,0,3.24,1.75,5.23,4.65,6.38a3.12,3.12,0,0,1,0,2.74c-1.72,1.93-1.22,3.13,1.24,3.61,3.44.68,5.47,2.56,5.43,6.26a3.88,3.88,0,0,1-3.34,1.65c-2.08,0-4.18.25-6.22-.4a23.67,23.67,0,0,1-6-5.76c-4-5.93-4-5.92-9.7-3.05-.59-.66-.86-1.71-2-1.65,1,.15,1.48.62,1.2,1.66a4.84,4.84,0,0,1-3.1,1.24c-1.81.21-2.06,1.7-2.47,3.05-.16,1.41-2.86,1.3-1.92,3.3,3.48.9,7.7.1,9.65,4.34-.15.8-.5,1.29-1.42,1a16.82,16.82,0,0,1-2.83-.38c-.82-.25-1.7-.57-1.79.53C110.19,260,111.06,260.63,111.51,261.21Z"/><path class="cls-81" d="M107.82,268.06l-.85-1.73,0-.46c1.67-.06,3.38-.66,5,.4l-.16,0-.92,1.65Z"/><path class="cls-82" d="M119.61,260.06l-4.31,0q-.22-.37-.45-.73l1.12-1.12a2.42,2.42,0,0,1,2.82-.59C119.65,258.23,120.47,258.87,119.61,260.06Z"/><path class="cls-83" d="M37.77,102.2a3.83,3.83,0,0,1,0-4l1.27-.78c1.25,0,2.49.48,3.74.08L45.17,99c1.89,1.19,4.07,1.81,6,2.95l.81-.68,1.88.64c1.51,1.79,4.09,1.75,5.72,3.34,1.37,1.8,1.62,3.58-.12,5.31a6.07,6.07,0,0,1-4.22,1.15,6.44,6.44,0,0,1-3-2c-1.22-2-2.64-3.62-5.34-3a85.07,85.07,0,0,0-7.27-4.44C39,102.9,38.32,103.16,37.77,102.2Z"/><path class="cls-84" d="M51.16,102c-3,1.12-4.64-.64-6-2.95C48.22,97.86,50.37,98.54,51.16,102Z"/><path class="cls-85" d="M42.82,97.49a2.62,2.62,0,0,1-3.74-.08C40.35,96.28,41.59,96.84,42.82,97.49Z"/><path class="cls-86" d="M29.72,180.5c-2.18,0-3.18-1.34-3.59-3.3,4.29-5,10.58-2.38,15.73-4.09,3.06-1.27,4.28.7,5.31,3-.12,2.19-1.73,2.57-3.42,2.65C39,179,34.4,179.93,29.72,180.5Z"/><path class="cls-87" d="M42.8,165.87a1.61,1.61,0,0,1,.12-.73c.82-.79.63-2.5,2.31-2.49a29.78,29.78,0,0,0,7.57-.3c7.8.74,9.17,2.22,7.83,8.41-1.05,1.26-1.78.44-2.51-.39-.5-.6-.68-2-1.44-1.78-3.91,1.31-7.82-.38-11.71.22a3.11,3.11,0,0,1-1.39-.36A2,2,0,0,1,42.8,165.87Z"/><path class="cls-88" d="M47,176.22c-1.82-.84-2.79-3.07-5.1-3.1a3.31,3.31,0,0,0,.18-.94c2.17-3.41,6-1.54,8.82-2.7a5.61,5.61,0,0,1,1.45.07c2,.54,3.72,1.43,4.11,3.76a2.77,2.77,0,0,1-3,2.64c-2-.5-3.92-.81-5.84.17Z"/><path class="cls-89" d="M39,158.2l-1,2.95c-1.56.85-3.15,1.59-5,1.07-.55-.35-1.23-.53-1.55-1.19a3.23,3.23,0,0,1-.08-2,3.94,3.94,0,0,1,1.59-2.15C35,156.84,37.39,155.74,39,158.2Z"/><path class="cls-90" d="M51,170.21c-2.64,2.17-6.14.44-8.93,2l-1-.92a1.7,1.7,0,0,1-.67-1.08,2,2,0,0,1,.47-1.18,7.93,7.93,0,0,1,3.1-.79h1C46.9,169.09,49.84,166.94,51,170.21Z"/><path class="cls-91" d="M44,168.21c-.26,2.38-1.56,1.69-2.87,1q-.58-.25-.45-.6c.09-.25.19-.38.31-.38l1.84-2.34Z"/><path class="cls-92" d="M41,168.21a6.36,6.36,0,0,0,.14,1l-.25,1.12c-.86.58-1.6,1.62-2.85.78C36.85,167.94,40.12,169.32,41,168.21Z"/><path class="cls-93" d="M38,171.09l2.85-.78a6.19,6.19,0,0,1,.22.94C40,172.56,38.93,172.83,38,171.09Z"/><path class="cls-94" d="M21.15,191.17c-.46-4.27.74-7.23,5.71-7.09,1.29,0,1.31-1.36,2.21-1.7,5.87-4.18,12.88-3.62,19.5-4.67,1.48,1,1.62,2.34,1,3.87a2.64,2.64,0,0,1-1,.95c-2.81-.34-5.62-.72-8.18,1-2,1.74-3.56,4.12-6.3,5-3.25-.4-5.84,2.12-9,2.07a2.39,2.39,0,0,0-2.81.75A1,1,0,0,1,21.15,191.17Z"/><path class="cls-95" d="M21.15,191.17l.94-.07a3,3,0,0,1,2.93-.88c2.75-1.51,5.16-4.47,8.81-2a1.86,1.86,0,0,1,.74,1.14,3.59,3.59,0,0,1-1.38,3.06c-1.22.43-2.56-.19-3.76.42-1.44.36-2.21,1.73-3.5,2.33-2.58.58-3.49-1.65-5-3Z"/><path class="cls-96" d="M48,178.21c-2.25.45-4.63,1.6-6.73,1.21-4.66-.86-7.63,4.19-12.18,3l.65-1.88c3.79-3.85,8.92-2.07,13.39-3,1.39-.29,2.83,0,3.85-1.28v0C48.64,176.2,48.62,177,48,178.21Z"/><path class="cls-97" d="M53,206.7c-1.89,1-2.78-.62-4-1.47-6,.77-11.91,2.18-17.86,0-.59-1.46,0-2.75.61-4,.74-4.16,3.95-4.1,7.09-4.15,1.32.21,2.64.35,3.77-.63a3.51,3.51,0,0,1,2.57-.52c1.83,1.32,3.94.59,5.93.8C56.93,199.8,57.59,203.41,53,206.7Z"/><path class="cls-98" d="M31.11,205.19c6-.12,11.91-1.35,17.86,0-.1,5.65-6.89,4.1-8.65,8.07-2.8-.3.05-9.59-6.39-4.1a1.14,1.14,0,0,1-1.18.27,3.78,3.78,0,0,1-2-2.44Z"/><path class="cls-99" d="M30.71,207c1.26.2,2.19.75,2.3,2.16-1.73,2-4,1.75-6.3,1.58a22.21,22.21,0,0,0-7.3-.73c-1.75.14-3.81,0-3.42-2.82,2.88-3,6.27-2.87,9.33-.79C27.25,207.77,28.84,207.52,30.71,207Z"/><path class="cls-100" d="M16,207.24c.89,1.74,2.15,2,4,1.53,2.42-.57,5-.65,6.94,1.44-1.47,4.19-5.45,1.81-8,3.09a7.05,7.05,0,0,1-1.53.11c-1.81-.35-3.77-.56-3.46-3.2l.72-2Z"/><path class="cls-101" d="M18,224.34,15.32,224a3.86,3.86,0,0,1-1.23-4.73l-.1,0c3.76-1.81,6.48,2.32,10,1.76a1,1,0,0,1,0,1.29L21.75,224C20.6,225.27,19.31,224.76,18,224.34Z"/><path class="cls-102" d="M68.11,249.26c-1.88-3.12-4.22-3-6.22-.4-4,5.2-10.84,4.76-15.66,8.3-1.8,1.32-2.55-.47-3.23-1.81,1.69-1.6,5.35-1.35,4.78-5.08,3.87-1.65,6.52-5.52,11-6.05a12.18,12.18,0,0,0,4.12-3.32c2.32-2.9,3.11-2.66,4.92,1.26-.42,1.13-1.74,2.26.06,3.38S69.15,248,68.11,249.26Z"/><path class="cls-103" d="M59,245.21c-3.31,1.85-6.87,3.3-9.63,6-.1.1-1-.64-1.56-1-2.58-.38-4.91,1.85-7.75.85,1-2.62,4.8-3.26,4.22-6.67,0-.26,1.13-1.11,1.42-1,5,2.27,8.35-4.09,13.18-2.55C60.3,242.31,60,243.75,59,245.21Z"/><path class="cls-10" d="M79.91,242.23c-3.21.55-4.27-2.85-6.74-3.67-2.08-.29-3.79-1.73-5.9-1.91-1.23-.16-2.46-.32-3.25-1.44,4.39-.35,2.75-4.43,4.11-6.66a3.6,3.6,0,0,1,2.09-2.15c3.16-.44,5.43.92,7.06,3.53-.53,2-2.25,2.28-3.84,2.76-1.08.72-.5,1.28.25,1.69,1.42.78,3.08.73,4.59,1.23a5.76,5.76,0,0,1,3.11,2.84c.76,1.35,2.19,1.79,3.4,2.55s2.37,1.78,1.17,3.47C83.39,245.19,81.5,244.11,79.91,242.23Z"/><path class="cls-104" d="M67.88,235.25c2.28.27,4.22,1.1,5.29,3.32-.15,3.62-3.8,2-5.34,3.59-1.36-1-2.65-4.56-4,.26-.37,1.3-2.75,2.63-4.84,2.8l-.13-4.29a5.67,5.67,0,0,1,4.2-5.47C64.67,235.75,66.3,236.1,67.88,235.25Z"/><path class="cls-105" d="M67.79,226.81c-2.15,3.18-5.38,4.89-8.74,6.42a1,1,0,0,1-1.21.16c-1-1.11.17-3-2-3.89-2.53-1-1.17-2.73.16-4.07,3.45-1.8,6.68-4.28,10.94-3.71a3.26,3.26,0,0,1,1.71,1.53C69.05,224.61,69.14,225.88,67.79,226.81Z"/><path class="cls-106" d="M38.76,225.2c1.81-1.31,3.35-3.14,5.87-3.13a1.61,1.61,0,0,1,1.95.11,9.88,9.88,0,0,1,3.83,5.66c-1.57,2,2.28,2.45,1.31,4.31a4.19,4.19,0,0,1-2.47,2.29,2,2,0,0,1-1.13-.49c-1.07-1-1.75-2.36-3-3.16-2.43-1.07-5-2-6.59-4.29A2,2,0,0,1,38.76,225.2Z"/><path class="cls-107" d="M67.79,226.81v-3.66c1.3-3.6,5-4.28,7.64-6.31a1.73,1.73,0,0,1,1.28.85c1.08,2.69,1.22,5.31-.63,7.77-1.62,1.62-4.1.35-5.8,1.73l-2.17,1.36Z"/><path class="cls-108" d="M38.82,225.9,46,230.21a.82.82,0,0,1,0,1.3,1,1,0,0,1-1.36-.17c-2.21-.28-4.35,1.85-6.61.19-1.34-.67-.38-2-.82-2.9C37.48,227.58,37.05,226.07,38.82,225.9Z"/><path class="cls-109" d="M51.72,232.15c-.59-1.29-2.87-1.82-1.75-3.88a2,2,0,0,1,2.1-1.61c2.4,1.76,4.93,3.42,6,6.45l1,.12-4.12,2.31c-2.25-1.07,1.47-3.4-1.08-4.2A1.83,1.83,0,0,0,51.72,232.15Z"/><path class="cls-106" d="M44.57,231.34l1.4-.14c1.11.87,1.53,2.43,3,3l.31.26c0,1.57-.1,2.91-2.29,2.83-1.79-.07-2.11-1.14-2.19-2.54C44.69,233.6,44.63,232.47,44.57,231.34Z"/><path class="cls-110" d="M39,238.21q0-.45,0-.9c4.52.15,2.22,2.84,1.8,4.83C39.5,241.14,40.48,239.11,39,238.21Z"/><path class="cls-111" d="M35,248.34c-.48-1.37-2-2.77.09-4.09C34.1,245.59,37.36,247,35,248.34Z"/><path class="cls-111" d="M32,251.18c.28-1.11-.48-3.52,2.13-1.69A2.43,2.43,0,0,1,32,251.18Z"/><path class="cls-112" d="M67.88,235.25c-1.55,1.47-3.18,1.24-4.83.21l1-.24Z"/><path class="cls-113" d="M85.94,261.95c-2.21,1.2.26,4.11-2,5.31-.84-3-4-4.45-5.13-7.24-.12-2.35-1.76-3.25-3.65-4.11-5.66-2.58-5.79-3.62-1.2-7.95,1.11.74.85,2.12,1.46,3.1,2.46,1.63,5.41,2.42,7.62,4.49C84.95,257.29,86.7,259,85.94,261.95Z"/><path class="cls-114" d="M85.94,261.95c-1.94-5.72-7.25-7.45-11.87-10a4.43,4.43,0,0,1,1.85-1.2,1.39,1.39,0,0,1,1,.35,9.11,9.11,0,0,1,8,3.09,3.73,3.73,0,0,1,1.62,1.22c2.44,3,6.17,4.59,8.39,7.8h0c-.71,1-2.12,1.58-2,3.11L91,266c-.52-1.67-1.21-3.21-3.11-3.74Z"/><path class="cls-115" d="M86,244.2c-.7-3.22-5.1-2-6-5,.82-1.45,2-1.51,3.39-.9a20,20,0,0,0,5.74,1.41c1.8.82,3.31,2.31,5.45,2.35,2.15.78,3.83,2,4.27,4.43L97,248.28a4.72,4.72,0,0,0-6.24-.15c-2.1-.12-3.09-2.22-4.94-2.79l0,0Q85.12,244.69,86,244.2Z"/><path class="cls-116" d="M78.86,260c3,1.47,5.55,3.32,5.13,7.24-1.89.07-8.82-4.43-8.64-5.77C75.65,259.24,77.88,261,78.86,260Z"/><path class="cls-117" d="M86,255.21l-1-1c5.43-3.63,7.29-2.72,10.12,5-.56,1.49-2,2.3-3,1.23C90.29,258.34,87.35,257.7,86,255.21Z"/><path class="cls-45" d="M86,255.21c2.2,1.08,4.73,1.68,6.18,3.92,1,1.58,2,.2,2.94,0l.92.95-1,3.1c-3.79-.37-5.17-4.78-9-5.33C85.16,257.75,85.53,256.14,86,255.21Z"/><path class="cls-118" d="M49.88,261.25c2.39-1.2,3.18,1.76,5,1.94-.35,2.28-1.53,3.74-3.93,4Z"/><path class="cls-119" d="M85.79,245.34c3-1.53,3.7,1.13,4.94,2.79C88.18,250.9,88,250.79,85.79,245.34Z"/><path class="cls-119" d="M86,244.2l-.15,1.19c-3,.83-5.92,1.6-5.92-3.16Z"/><path class="cls-118" d="M56,260.85c1.23-.52,2.29-2.48,3.61-1.46,1,.8,0,2.41-.58,3.57Z"/><path class="cls-120" d="M87.86,262.24c2.81-.23,4.24.69,3.11,3.74Z"/><path class="cls-121" d="M97,252.19a3.2,3.2,0,0,1,3,1.84l-3.86.22C94.93,252.93,97,253,97,252.19Z"/><path class="cls-122" d="M67.33,260.39a1.46,1.46,0,0,1-1.36-1.2c-.2-.93.47-1.17,1.13-1.17a1.28,1.28,0,0,1,1.39,1.1C68.64,260,67.95,260.18,67.33,260.39Z"/><path class="cls-123" d="M76.13,251.36l-2.06.58L74,248l.9-.75C75.86,248.44,75.27,250.11,76.13,251.36Z"/><path class="cls-124" d="M76.13,251.36c-1.61-1-1-2.73-1.21-4.16l2,3.89A1,1,0,0,1,76.13,251.36Z"/><path class="cls-125" d="M105.91,265.41,105,265l-1.24-1.76c.25-.15.52-.47.73-.43C106,263.11,105.82,264.34,105.91,265.41Z"/><path class="cls-126" d="M112,266.28l-5-.4C108.75,265,110.44,264.66,112,266.28Z"/><path class="cls-127" d="M90.89,37.24c.39,1.61.63,3.12-1.85,2.91-.4-.32-1.09-.36-1.07-1.1a1.83,1.83,0,0,1,2-1.84A3.06,3.06,0,0,1,90.89,37.24Z"/><path class="cls-128" d="M88,39,89,40.14l-3.94.12L84,39.45Z"/><path class="cls-129" d="M24,222.3a9.2,9.2,0,0,0,0-.94,2.33,2.33,0,0,1,2.12-2,2.65,2.65,0,0,1,2.13.76,2,2,0,0,1-.22,2.17Z"/><path class="cls-130" d="M31.06,220.27l-1.77,2-1.25,0-.09-2c.31-1,.89-1.56,2-1.16Z"/><path class="cls-34" d="M42,196.23c2.26-1.41,2-4.21,3.23-6.25,1.6-2.62-2.9-.86-3.17-2.82,1.61-1,1.92-2.86,2.69-4.42a2.84,2.84,0,0,1,3.25-.8l1,.36.42.51a3.75,3.75,0,0,1,.12,1.31c-.09,1.92-.48,3.87.65,5.64,3.25,4.26,3.83,4.25,7.12-.15,1.23-1.49,2.48-2.94,4.39-.85.64.69,1.07,1.9,2.32,1.21a3.56,3.56,0,0,0,1.87-3.28c0-1.49-1-2.84-.69-4.38a3.12,3.12,0,0,1,.59-1.23c1-.86,2.67-.24,3.47-1.55.24-1.92-1.17-4.69,2.49-4.83,1.87,1,3.51,3.44,5.93.91A3.9,3.9,0,0,1,81,175a2.74,2.74,0,0,1,.74,1.21,5.05,5.05,0,0,1,.06,1.39c-1.37,4.13,1.7,4.16,4.3,4.62a4.12,4.12,0,0,1,2.17,1.56c1.15,2-1,2.95-1.45,4.45a3,3,0,0,1-1,1.62c-.69.45-1.56.54-2.21,1-3.57,2.47-5.9,1.52-7.26-2.44-.75-.81-1.15-2.13-2.66-1.83-.87,1-1.24,2.35-2.22,3.26-1.17,1-2.46,1.88-.81,3.5,1.23,1.21,2.16,2.5,1.09,4.3A9.92,9.92,0,0,1,69,200.64c-3,.05-6.14-.48-8.08,2.68-1.24,1.19-1.74,3-3.15,4-1.76.92-3.5,1.7-4.87-.57l0-.07c2.62-5.06,2.21-6.32-3-9.38-1.88.89-3.44.11-4.95-.95l-2.06.62A1.37,1.37,0,0,1,42,196.23Z"/><path class="cls-1" d="M52.91,206.77c1.76.46,3.53,1.06,5.05-.58a23.11,23.11,0,0,1,10.15,4.65c1.55,1.2,2.15-.14,3.12.16,2.11,1.55,4.66,2.84,3.63,6.22-.13,4.63-5,3.67-7.07,5.95l-.81-.92c-1.37-4.29-3.54-7.42-8.8-6.13a4.82,4.82,0,0,1-3.34-.91,6,6,0,0,1-2.64-4C51.12,209.53,52.93,208.29,52.91,206.77Z"/><path class="cls-131" d="M19,212.14c2.45-1.57,5.7.21,8-1.93l6-1h.93c.93,1.32,1.64,2.67.36,4.18a23.63,23.63,0,0,1-12.92,1.49C19.95,214.66,17.64,214.91,19,212.14Z"/><path class="cls-132" d="M55,214.21l3.15,1.05a2.46,2.46,0,0,1-.72,2.44c-1.11.82-1.47,2.13-2.08,3.28a2.51,2.51,0,0,1-2.61.78c-2.93-1.64-7-2.1-6.88-6.85,0-.79,0-1.61,1.12-1.73C49.79,212.17,52.28,214,55,214.21Z"/><path class="cls-133" d="M19,212.14c3.44,2.66,7.37,1.84,11.15,1.34,1.44-.19,2.76-1,4.19-.09l-3.24,3.87c-3.47-1.4-6.67,0-9.91,1-2.16,0-4.29,0-4.22-3.07.45-.95,1.38-1.73,1-3Z"/><path class="cls-134" d="M45.82,214.92c1.18,3.45,5,3.74,7.16,6-1.44,3.32-4,3.45-6.94,2.42l-1.42-1.3C45.77,219.81,43.93,217.06,45.82,214.92Z"/><path class="cls-135" d="M22,217.2c3-2.71,6.07-2.79,9.09,0L30,219.17l-2,1.16L26,220C24.37,219.45,22,220,22,217.2Z"/><path class="cls-136" d="M55,214.21c-.71,1.57-1.57,1.55-3,.69a26,26,0,0,0-5-1.71c1.31-1.85,4-.11,5.27-2A7,7,0,0,1,55,214.21Z"/><path class="cls-34" d="M38.82,225.9l-1.67,2.72c-.95-1.84-.82-3.17,1.62-3.42Q38.79,225.55,38.82,225.9Z"/><path class="cls-137" d="M91,50.26l.19,1.94c-.74,3-3.06,2.6-5.28,2.39-1.6-1.14-2.22-2.47-.85-4.21l1-.3c.85-1,2.18-.22,3.14-.81Z"/><path class="cls-138" d="M85,50.38A5.1,5.1,0,0,0,86,54a1.16,1.16,0,0,1-1.74.35l-3.25-3,3-1.29Z"/><path class="cls-139" d="M89.1,49.27a2.86,2.86,0,0,1-3.14.81C86,45.74,88,49.16,89.1,49.27Z"/><path class="cls-140" d="M83.94,59.35c1.65-.51,2.81-.12,3.18,1.73-1.2,1.94-2-.78-3.14-.24Z"/><path class="cls-141" d="M99.15,91.2l.85,3a17.61,17.61,0,0,1-10.33-4.58,2.2,2.2,0,0,1,1.2-1.82,3.39,3.39,0,0,1,1.51-.09c1.51.11,3.05-.24,4.54.29A3.82,3.82,0,0,1,99.15,91.2Z"/><path class="cls-142" d="M92,88q0-.41,0-.82c1.66.18,3.46-.51,4.94.8Z"/><path class="cls-143" d="M89.85,85.36l1.19,3-1,1c-.85,1.8-1.46,3.75-3.1,5.06a1.81,1.81,0,0,1-2.12-1.33,1,1,0,0,0,.11-.93A2.62,2.62,0,0,0,84,89.14a1.2,1.2,0,0,0-.3-.92C85.84,87.45,87.47,85.6,89.85,85.36Z"/><path class="cls-144" d="M92.81,59c.51-1.48,1.58-2.25,3-1.65,1.12.47,2.37,1.3,1.12,2.89C95.48,60.1,93.84,60.54,92.81,59Z"/><path class="cls-145" d="M84.83,93.13l2.35,1a1,1,0,0,1,1.22.43,4.78,4.78,0,0,1-1.08,4.74c-1.63,1-3.72,0-5.29,1.24-3.14,1.6-5.55-.8-8.27-1.5-1.37-1-1.14-2-.19-3.12a24.58,24.58,0,0,0,4.89-2.5A4.73,4.73,0,0,0,84.83,93.13Z"/><path class="cls-146" d="M63,96.21l-2.12-2,1.08-1c2-1.18,4,.18,6,0l3,0a1.4,1.4,0,0,1,.1,1.56C68.84,97.82,66.12,98.05,63,96.21Z"/><path class="cls-147" d="M70.92,94.33l0-1.11,7.5.18c-.06,3.18-2.11,3.34-4.52,3C72.34,96.57,71,96.41,70.92,94.33Z"/><path class="cls-148" d="M68,93.18c-2,1.59-4-.27-6,0,1.75-1.79,4-.72,6-1Q68,92.69,68,93.18Z"/><path class="cls-149" d="M70.92,94.33l3,2c-.17.6-1,1.16-.09,1.81.61.64.19,1.21-.12,1.78-.25.41-.73,1-.48,1.31,1.69,2.27,8,4.19,10.73,3.35,2.26.22,4.56-.63,6.81.2a4.31,4.31,0,0,1,.47,4.58c-2.34,1.84-5.06,3.61-1.07,6.5.95,1.65.07,3-.65,4.42a2,2,0,0,0,.19,2.15,34.33,34.33,0,0,1,2.5,2.52,10.06,10.06,0,0,1,.75,1c.37.5.7,1,1,1.55.47,1.39,2.35,1.94,2.24,3.69a5.82,5.82,0,0,1-1.68,2.1,15,15,0,0,1-3.07,1.6c1.37,1,2.71.81,4,.88,1.83.1,3.58.4,4.77,2a2.61,2.61,0,0,1,.27,1.5c-.72,1.89-2.14,1.83-3.71,1.33a3.77,3.77,0,0,0-4.89.28,5.42,5.42,0,0,1-2.1.42,7.77,7.77,0,0,1-4.12-1.42c-2.28-3.94-6.09-6-9.95-8-.33-1.35.54-2.21,1.29-3.12a10.38,10.38,0,0,1,1.54-1.42,3.79,3.79,0,0,1,1.92-.77c1.85,0,5.24,1.44,2.65-2.79-1.12-1.43-2.21-3.64-3.43-.06a3.28,3.28,0,0,1-.94,1,5.06,5.06,0,0,1-2,.61,6.49,6.49,0,0,1-5.27-2.07c-1.54-1.49-3.14-2.1-3.77.87-.44,1.6-1.06,3.23.93,4.31,1.43,5.85,7.21,7.62,10.78,11.48.61,3.34-1.94,5.19-3.52,7.5-.74.94-1.47,1.91-2.8,2.06-2.28-.56-4.27-1.85-6.48-2.58a2.57,2.57,0,0,1-1.24-1.68,3,3,0,0,1,1.11-2.5c.68-.69,2-.71,2.09-2a2.63,2.63,0,0,0-1-1.22c-2.11-1.73-4.58-.24-6.82-.78a5.75,5.75,0,0,1-3.32-2.45c-.5-1.28-.57-2.6.66-3.43,4.91-3.29-.38-1.8-1.12-2.42a7.1,7.1,0,0,1-2.1-.38,3.42,3.42,0,0,1-1.18-.86,1.2,1.2,0,0,1,.21-1.34c1.08-1.38-.76-4.67,3.47-4.19,2.37.27-.42-3.45,1.49-4.62.22-3.85,4-3.41,6-4,3.12-.91,6.77-1.57,10.16-.12,1.3,1,2.16.88,2.25-1-.32-.88,1.67-2.13-.47-2.71-2.65-2.37-6.47-.21-9.15-2.38-1.1-1-2.25-1.7-3.65-.46-1.06,1-1.2,2.89-3,3.17a2.1,2.1,0,0,1-2.1-1.52c1.33-1.69.57-3.35-.07-5a3.3,3.3,0,0,1,1-4.08c.94-2.89,3.82.3,5.29-2.08.33-1.29-2.8-1-2.06-2.84C66,96.91,68.44,95.56,70.92,94.33Z"/><path class="cls-150" d="M59.81,101.13c.89,1.65.09,2.89-1,4.08-2.13-.38-4.9.22-5-3.27C55.29,97.6,57.58,99.58,59.81,101.13Z"/><path class="cls-151" d="M134.79,237.22c.89,1.83,3.9,1.33,4.18,3.82l0,1.15c-2.88-.35-4.93-2.19-7-4a1.85,1.85,0,0,1,1.07-1.51A1.56,1.56,0,0,1,134.79,237.22Z"/><path class="cls-152" d="M121.3,232.33c0,1.74,1.68,3.65,0,5.17-2.1,1.87-3.33-1.64-5.32-1.19a1.68,1.68,0,0,1-1.17.35,16.85,16.85,0,0,1-2.52-.63c-3.59-1.32-7.07-3-11-3.21-2.55-.14-4-2.23-6-3.34a2.17,2.17,0,0,1-.88-3.44c.77-5.59,2.83-6.47,7.32-3.05,1.2.92,2.29,2.22,3.91,1.72,3.86-1.2,6.36.75,8.64,3.39.32.29.63.61.93.92a13.12,13.12,0,0,0,5.15,2.47A2,2,0,0,1,121.3,232.33Z"/><path class="cls-153" d="M115,245.85c3.18-5,7-5.08,9.24.37,1.31,3.18,5.18,4.22,5.46,7.85-1.14,1.64-2.93,1.48-4.59,1.69-5.93.92-13.1-3.59-15.07-9.47l3.95-.32A.73.73,0,0,1,115,245.85Z"/><path class="cls-154" d="M95.95,228.23a12.47,12.47,0,0,0,8.13,3.65c3.18.13,6.12,1.78,8.91,3.4a3.73,3.73,0,0,1,0,4.94c-3.91,2-5.25-2.44-8-3.25-3.62,0-7.19-.06-9.65-3.36C94.24,231.65,93.39,229.73,95.95,228.23Z"/><path class="cls-155" d="M104,248.19l-3.91-3c-1.6-1.13-2.35-3.93-5.18-2.65a4,4,0,0,1-3.47-3.93c.37-2.25,1.83-3.08,3.94-2.79,2.9.4,5.92.14,8.67,1.47l1,3.7C104.92,243.38,106.91,246.15,104,248.19Z"/><path class="cls-156" d="M110,246.3a31.85,31.85,0,0,0,12.09,8.85c1.25.5,1.11-1,1.87-.95,1.11,1.11,2.27,2.21,1.13,4a5.23,5.23,0,0,1-5.48,1.91l-.61-2c-3.66-1.22-5.94-4.92-9.95-5.52-.93-.55-.55-1.67-1.07-2.4C106.52,247.79,106.55,246.16,110,246.3Z"/><path class="cls-157" d="M132.91,244.18c5.51.6,8.6,5,13.87,8.31l-6.8.72c-1.77-2.21-3.31-4.44-6.83-4.16a4,4,0,0,1-3.8-3.36C129.21,243.78,131.51,244.33,132.91,244.18Z"/><path class="cls-158" d="M104,237.24c-3-.33-6,1-9-.42-1.26-.59-2.12.37-2.79,1.37-1.83,0-3.72-1.39-5.46.3-1.1-.1-1.54-.88-1.89-1.78-.32-1.13-.47-2.29-.7-3.44a4.65,4.65,0,0,1,.1-1.41,2.72,2.72,0,0,1,4-1.66c2.54,1.09,5.63.76,7.7,3,2.49,2.43,6.23,1.91,9,3.76A2.74,2.74,0,0,1,104,237.24Z"/><path class="cls-159" d="M121.3,232.33,120,232.2c-1.67-1.68-4.08-1.16-6-2l0-1c-.82-1.16-.92-2.25.33-3.2,4.51-.22,8.39,1.65,12.2,3.75a4,4,0,0,1,1.29.34c2.29,1.85,5.47,2.47,7.13,5.17q-.05,1-.11,2H133a23.46,23.46,0,0,1-4.88-1C126.67,233.4,125.15,230.79,121.3,232.33Z"/><path class="cls-160" d="M108.68,252.08c5-.63,7.61,2.76,10.31,6l-3,.08c-3.1-3.21-7.43-1.85-11.08-3C103.69,251.14,106,251.43,108.68,252.08Z"/><path class="cls-161" d="M125.09,258.16c-.29-1.34-1.5-2.43-1.13-4l5.7-.12,7.64.25a2.61,2.61,0,0,0-.4.7c-2.06,1.79-4.58,2.73-7,3.81C127.92,261,126.68,258.35,125.09,258.16Z"/><path class="cls-162" d="M128.11,236.16c2-1.18,3.69-1.32,4.88,1l-1,1c-3.66,2.2,1.58,1.86.91,3.21C129.78,241.06,125.76,241.49,128.11,236.16Z"/><path class="cls-163" d="M95.35,242c.87-.73.19-2.64,1.7-2.69,1.35,0,1.69,1.43,2.11,2.45a25.09,25.09,0,0,1,.93,3.34l-1.27,1.34c-1.66-1.08-2.55-3.23-4.82-3.46C93.95,242,94.35,241.61,95.35,242Z"/><path class="cls-164" d="M104,248.19c1.61-2.23.14-4.92,1.08-7.25,1.28,2.12,1,4.46.83,6.74C105.81,249.15,105,249.16,104,248.19Z"/><path class="cls-121" d="M108.68,252.08c-1.91.25-4.73-.62-3.79,3.11-3-4.17,1.91-3.42,3.08-5Z"/><path class="cls-165" d="M115,245.85l-1,.13c-1-1.23-2.77-.49-4.67-1.5C111.84,244.35,113.88,243.23,115,245.85Z"/><path class="cls-166" d="M115.17,236a1.06,1.06,0,0,1,.78.34c-1.19,1.06-.15,3.21-1.94,4C113.75,238.68,112,236.68,115.17,236Z"/><path class="cls-167" d="M115.17,236c-1.68,1.09-.82,2.87-1.16,4.32l-1-.09v-4.94C113.81,235.23,114.62,235.19,115.17,236Z"/><path class="cls-168" d="M37,152.26q.36-.16.72-.29a6.18,6.18,0,0,1,3.13.33c1.45.66,1.73,1.86,1.49,3.29a1.83,1.83,0,0,1-1.45,1.22,6.05,6.05,0,0,1-1.32-.24c-2.27-.35-4.44.45-6.66.65a2.25,2.25,0,0,1-1.06,2,3.32,3.32,0,0,1-3.21.8l-1.74.17c-2.94-4.78,2-5,4-6.86A29.66,29.66,0,0,0,37,152.26Z"/><path class="cls-169" d="M37,152.26c-1.94.83-3.67,2.88-6.08,1.09.88-1.59,2.47-1.09,3.81-1.29Z"/><path class="cls-160" d="M60.94,111.48c1.86-.75.14-3.34,2.08-4.06,1.68.28,3.51-.45,5.06.76,1.27.21,2.75.94,3.77.53,3.12-1.25,4.65.35,6,2.67,1.34,1.2-.15,2.09-.35,3.13-.36,1.29-1,2.17-2.53,1.69-1.68-1.11-3.3-1.29-4.87.25-.72.71-1.69,1.41-2.43.22-1.29-2.08-2.33-1.27-3.12.22-1.29,2.44-4.74-.76-5.67,2.31-2.48.34-1.62-2.38-2.88-3.15-.22-1.8,1.47-1.9,2.37-2.71C59.24,112.72,60,112,60.94,111.48Z"/><path class="cls-69" d="M53.93,128l.12,1c1.23,2,0,3.29-1.42,4.48-2.21.84-4.29.9-6-1.07a1.39,1.39,0,0,1,.27-1.32c-1.88-2.25-5.88.79-7.18-2.9l3.36-3a6.42,6.42,0,0,1,6,0C50.87,125.85,51.89,127.79,53.93,128Z"/><path class="cls-103" d="M59,114.21,56,116c-2.54-.85-4.3,3.2-7,1.13l-.87-1.24c-.37-3.06,1.88-2.72,3.75-2.89C54.34,112.75,57.17,110.38,59,114.21Z"/><path class="cls-170" d="M49.11,125.16c-2,1.07-4-.28-6,0C45.08,123,47.09,122,49.11,125.16Z"/><path class="cls-171" d="M59,114.21c-2.11-2-5,.6-7.11-1.17l.47-1.66c.69-1.06,1.53-.83,2.41-.28l4.17-.88,2,1.26C61,112.89,60.77,114.13,59,114.21Z"/><path class="cls-172" d="M47.05,106.25c3.71-2.8,4.78.24,6.1,2.75.15,1.81-.91,1.76-2.17,1.4-1.28-2.42-4.18-1.7-6-3.09C45.38,106.37,46.44,106.75,47.05,106.25Z"/><path class="cls-173" d="M47.05,106.25,45,107.31l-1.85-.22c-.75-1.12-1.52-2.22-3.14-1.82l-.34-2.91C42.92,102.12,45.49,103.22,47.05,106.25Z"/><path class="cls-174" d="M40,105.27c1.64-.41,3.23-.74,3.14,1.82l-1.2,1.16C40.24,107.94,38.74,107.5,40,105.27Z"/><path class="cls-175" d="M51,110.4a2.69,2.69,0,0,0,2.17-1.4l1.58,2.1-2.41.28Z"/><path class="cls-176" d="M49,141c-1.79-1.9-3.34.66-5.05.26l-.88-1.07-.06-2,.76-.26c3-1.4,6.13-.46,9.21-.46a5.87,5.87,0,0,1,1.37.13c1.24.51,2.84.65,2.7,2.6-1.35,2.57-4.39.73-6.11,2.34A1.75,1.75,0,0,1,49,141Z"/><path class="cls-177" d="M47,132.09l4.82,1.37c1.66.46,2,1.5,1.28,3a3.48,3.48,0,0,1-2.15.86c-1.62-.11-3.14-.44-4-2.05l-1-2A1.19,1.19,0,0,1,47,132.09Z"/><path class="cls-178" d="M50.9,136.43l2-.31c1,.39,1.49,1,1.05,2.08-3.43,1.38-6.8,0-10.19-.23.14-.76.21-1.57,1.25-1.64C47,136,48.94,136.85,50.9,136.43Z"/><path class="cls-179" d="M50.9,136.43a5,5,0,0,1-5.86-.1l2-1.08Z"/><path class="cls-180" d="M47,132.09,46,133.2c-.65-.45-1.75-.81-1.38-1.7.16-.39,1.49-.29,2.29-.41Z"/><path class="cls-181" d="M52.93,174.88c1.38.14,2.54-.08,2.85-1.71-.11-3.55,2.59-1.53,4-2,.75-4.13.91-7.76-5.16-6.83-.84.13-1.81-.57-2.72-.89a6.49,6.49,0,0,1-4.92-1c-2.26-3.35,2.07-1.55,2.3-3-.92-2-2.89-.77-4.31-1.27-.68-.22-1.27-.54-1.41-1.33a4.4,4.4,0,0,1,.94-2.58c.93-1.26,2.3-2.34,3.7-1.62,2.86,1.48,4.45-.66,6.46-1.73a11.93,11.93,0,0,1,5.35,3c.8,1.85-1.61,2.54-1.47,4.14s.79,1.52,1.64.38c2.43-3.66,5.77-.49,8.6-1.17a6.31,6.31,0,0,1,2.56,1,4.2,4.2,0,0,1,2,2.67c-.23,1.5-.67,3-.77,4.51A2.86,2.86,0,0,1,71.36,167c-1.12.59-2.43.69-3.51,1.36a4.79,4.79,0,0,0-2.09,2.09c-.57,2.48-1.51,4.69-4,5.81a15.65,15.65,0,0,1-3.06,1.87,42.59,42.59,0,0,1-6,.9,3.27,3.27,0,0,1-1.53-.5C49.83,176.33,49.64,174.73,52.93,174.88Z"/><path class="cls-91" d="M51,170.21c-1.45-2.32-5.07,1.87-6-2,.67-1.64,1.87-1.61,3.26-1A8.5,8.5,0,0,0,55.8,167c2.38-1.26,2.84.44,3.18,2.21-2.11,1.93-4.56,1.41-7,1H51Z"/><path class="cls-90" d="M52,170.21l7-1,.83,1.95c-1,1.25-3.69-.65-4,2Z"/><path class="cls-182" d="M47,162.41c1.86-.72,3.24.9,4.92,1a7.15,7.15,0,0,1-6.78.07Z"/><path class="cls-10" d="M33,157.21c2.17-1.92,4.49-2.52,7.07-.82a.48.48,0,0,1-.17.79l-.92,1C37.07,157.19,34.75,158.86,33,157.21Z"/><path class="cls-183" d="M39.88,157.19a1.92,1.92,0,0,0,.17-.79,4.75,4.75,0,0,0,.75-.11c.92.6,2.28-.3,3,.88l1.15.93C43.05,159.1,41.11,160.12,39.88,157.19Z"/><path class="cls-184" d="M52.93,174.88c-2.71.7-2.64,2.06-.92,3.82.65,2.65-.42,3.79-3.09,3.54v.06c-.06-1.42.44-3-.94-4.09l-1-2C48.33,172.89,50.5,173.31,52.93,174.88Z"/><path class="cls-185" d="M41,185.22c-1.4,2.78-2.52,6.07-6.77,3.87a4.13,4.13,0,0,0-.4-.9l5.94-5.84C40.89,183,41.68,183.79,41,185.22Z"/><path class="cls-186" d="M41,185.22l-1.24-2.87c2.69-1.05,5.32-3.15,8.2-.41l-2.9,1.28c-.9,1.06-1,3.48-3.37,2.07Z"/><path class="cls-187" d="M25,190.22c-.75,1.06-1.82,1-2.93.88-.05-1.1-.39-2.43,1.18-2.69C24.51,188.2,24.83,189.23,25,190.22Z"/><path class="cls-188" d="M32.9,192.18c-1.29,3.22-2.59,2.35-3.88,0C30.31,190.22,31.6,191.24,32.9,192.18Z"/><path class="cls-189" d="M42,196.23l1,.76c-.84,1-1.2,3-3.2,1.44A3.92,3.92,0,0,1,42,196.23Z"/><path class="cls-190" d="M45,196.37l4.95.95C48,198.52,46.16,199.21,45,196.37Z"/><path class="cls-191" d="M41.69,185.29c1.6.08,2.25-1.38,3.37-2.07.51,2.48,0,4.21-3,3.93Z"/><path class="cls-192" d="M22,217.2c1,1.39,3.32.95,4,2.83L24,221.36c-2.65.38-5.7,2.74-7.29-1.76-.34-1-1.77-.42-2.73-.36-.19-2.2.42-3.82,2.93-4.08C18,217.42,20,217.21,22,217.2Z"/><path class="cls-86" d="M96,233.2a22.56,22.56,0,0,1-8.39-2c-1.54-.75-2.07-.12-2.64,1-2.44.51-4.58-.91-6.91-1.1a2.77,2.77,0,0,1-1.07-.95c-2.21-1-4-3-6.68-3A4.37,4.37,0,0,1,75,225.32c2.36-.82,4.61-1.48,7.12,0,2,1.17,4-1.18,6.1-.87,2.51,1.38,6.28-1.09,8,2.62l-1.37.5,1.08.7C94.63,229.89,95.78,231.54,96,233.2Z"/><path class="cls-193" d="M77,230.19l1,0c2.08,1.59,4.72,1.85,7,2.94,1.08.76,1,1.87.86,3-1.48,2-3.3,1.68-5.14.65a9.76,9.76,0,0,0-5-1.63c-2-.64-4-1.18-3.74-3.95A8.48,8.48,0,0,0,77,230.19Z"/><path class="cls-194" d="M76,234.2c3.53-.53,6.11,3.75,9.88,1.95l1,2.06c1.09.22,2.66,0,1.76,2-3.2,2.43-5.54-2.43-8.62-1,.08-1.5-1.35-2-2-3C77.29,235.56,75.37,236.12,76,234.2Z"/><path class="cls-195" d="M76,234.2l2,2c-2.26,1-4.19-.13-6-1.11-2.3-1.22-2.24-2.64.08-3.89C72.74,233,74.52,233.38,76,234.2Z"/><path class="cls-181" d="M46,223.38c2.69.26,4.58-1.76,6.94-2.42.87.77,1.56.5,2.14-.38A4.91,4.91,0,0,1,57,217.2l1.12-1.94c1.69-.48,3.39-4.11,5.07.34.51,1.35,2.6-.79,4.48-.17a13.19,13.19,0,0,0-.68,6.79c-3.88.59-6.9,3.67-10.94,3.78a21.65,21.65,0,0,1-4.1,1.17l-2,1.08Z"/><path class="cls-116" d="M51.94,227.19c1.17-1.07,2.08-3,4.1-1.17-.05.84-1.4,2.4-.18,2.37,5-.14,2.8,2.56,2.16,4.73Z"/><path class="cls-196" d="M48.94,234.18c-3.86,1.87-2.69-1.28-3-3q0-.5,0-1C47.55,231.09,48.87,232.17,48.94,234.18Z"/><path class="cls-197" d="M96.23,227a5.69,5.69,0,0,0-5.62-.47c-1.82.75-1.79-.69-2.43-1.42-2.07-5.71-8.31-5-12.2-7.93H74.86c.51-3.07-3.46-3.35-3.7-5.94a1.82,1.82,0,0,1,1.07-1.66c3.34-.51,5.75-2,6.1-5.7,1.42-2.3-2-.2-1.53-1.64-.15-1.76,1.25-2.16,2.42-2.32a3.43,3.43,0,0,0,2.9-2.65,19.07,19.07,0,0,0,5-7.59c3.56-1.15,5,1.37,6.58,3.73a7.34,7.34,0,0,1,.6,1.32c2.34,3.08,7.13,4.42,11.38,2.65a8.51,8.51,0,0,1,6.72-.07c1.41.67,2.93,1.21,3.35,3a2.88,2.88,0,0,1-.64,2.27c-1.6,1.27-3.51,1-5.34,1.07-1,0-1.92,0-2.87,0-2.14-.15-3.61,1.52-5.49,2.08l-.66.15a6.22,6.22,0,0,1-1.37,0,32.07,32.07,0,0,1-8.5-2.36c-1.77-.75-3.46-1-4.84.74-.17,5.85,1.16,7.54,5.67,7.18,1.37-.12,2.67.39,4,.45a6.15,6.15,0,0,1,1.92.57,3.11,3.11,0,0,1,1,.87c.75,1.23.68,2.87,1.92,3.86,2.19.86,3.61,3,5.81,3.7,2.54.76.7-1.25,1-2a2.56,2.56,0,0,1,.64-2c2.4-1.1,4.34.15,6.32,1.23,1.37,1.6,4,1.71,4.76,4.05l1.15,2c-.28,4.19-3.43,1.43-5.15,2.13-1.54.51-.68,1.89-1,2.83-2.72-1.5-4.65-6.19-8.86-2.09-.25.25-3.16-.73-3.86-2.44-1.13-2.77-3.27-2.82-5.74-2.4C94.9,224,98,225.15,96.23,227Z"/><path class="cls-154" d="M76,217.21c.88-.37,1.61-2.46,2.67-.69,1.3,2.17,2.83,1.82,5,1.82,4.25,0,4.35,3.62,4.58,6.79-4.35,4-8.8.36-13.21.19C77.73,222.92,74.67,219.79,76,217.21Z"/><path class="cls-198" d="M88.59,240.2l-1.76-2c.16-1-.56-2.44,1-2.82,2.34-.59,3.34,1.27,4.46,2.8A5.11,5.11,0,0,0,95.35,242L94,243C91.29,243.82,90.12,241.68,88.59,240.2Z"/><path class="cls-104" d="M66.1,181.33c-.18.94-.53,1.77.08,2.81a6.07,6.07,0,0,1-2.87,8.62c-1.94.74-2.19-.52-2.33-2-.34-3.57-1.76-1.57-3-.56q-5.62,3.49-8.8-2.31c-.46-3.61,1.48-5,4.77-5.31C58,182.2,62.09,182.11,66.1,181.33Z"/><path class="cls-199" d="M87.24,190.31c.65,3.49-.21,6.1-4.06,7-.79.5-1.31,1.79-2.37,1.47-3.91-1.21-7.49-3.08-10-6.41a2.72,2.72,0,0,1,.16-3.21c1.78-1.15,0-3.82,2-4.85,1.33,1,2.25,2.57,4.14,2.65,1.46,1.06,1.3,2.94,2.44,4.77,1.56-2.36,3.8-3,6.36-2.64A1.61,1.61,0,0,1,87.24,190.31Z"/><path class="cls-200" d="M66.1,181.33c-3.35,2.56-7.48,2.78-11.27,2.65-3.57-.12-4.86.91-4.88,4.2a.93.93,0,0,1-1.36-.26c-.09-1.58-.4-3.17.24-4.71a1.48,1.48,0,0,0,.09-1c1.44-.82,2.78-1.73,3.09-3.54l1-.57c1.8-1.12,4,.35,5.8-.95l2.11-2c3.55-1.11,6.69-1.31,7.59,3.44.24,1.8-1.31,2.1-2.37,2.81Z"/><path class="cls-201" d="M78.79,204.65c1.3,3.3-1.62,5.92-6.41,5.75-4.59-1.16-8.32-4.07-12.46-6.14-.56-.28-.49-1.14.07-1.68,2.05-4,5-4.83,8.9-2.64,2.41,2.27,5.06,3.92,8.57,3.4C78.15,203.52,78.78,203.77,78.79,204.65Z"/><path class="cls-202" d="M70.93,189.12c1.25,4.39,7.9,8.82,12.25,8.16.94,5.68-4.3,3.19-6.4,4.84a1.92,1.92,0,0,1-1.21.63c-3-.58-5.62-1.54-4.58-5.51.71-1.06.38-1.56-.71-2.27C66.85,192.73,67,190.66,70.93,189.12Z"/><path class="cls-203" d="M78,176.3c-2.79,4-3.52,3.94-6.12-.77-2.33-2-5.95-3.29-4.14-7.56,2-1.25,4.17-.62,6.29-.45a5.16,5.16,0,0,1,3.29,3.37C77.2,172.72,81.67,174,78,176.3Z"/><path class="cls-204" d="M60,202.57c.59,2.45,3,1.73,4.5,2.31,3.14,1.22,5.07,4,7.89,5.51l-1.22.87c-1.29,1.61-3,.94-4.16.25-3-1.79-6.74-2.37-9-5.33A5.31,5.31,0,0,1,60,202.57Z"/><path class="cls-205" d="M77,171.4l-3-3c-1.36-.26-2.89-.26-3.15-2.13l1.2-1.08c3.19-2.35,6.61-2,10,1.12.26,3.18,2.25,6.26.56,9.56a1.41,1.41,0,0,1-1.44.58l-.29-1.6A11.79,11.79,0,0,0,77,171.4Z"/><path class="cls-206" d="M87.24,190.31,85.91,189l0-1.82c.68-.84,2.13-.25,2.63-1.43.6-.89.37-2.21,1.49-2.83a2.15,2.15,0,0,1,1.84.79c1,1.38,2.48,2.37,3.08,4.05.34,2.34,1.19,4.86-2.09,5.92C91.11,192.37,90.05,189.91,87.24,190.31Z"/><path class="cls-10" d="M90,183.21c0,1.06.14,2.19-.9,2.94-.87-.34-.42-1.51-1.2-1.91L86,183.08c-1.7-1.92-4.61-2.81-5-5.86a6.67,6.67,0,0,0,.08-.74,4.74,4.74,0,0,0,.89-.26,10.9,10.9,0,0,0,.87-1c4-2.95,4.48,2,6.74,3a7.08,7.08,0,0,1,1.73,2.07A2.9,2.9,0,0,1,90,183.21Z"/><path class="cls-27" d="M49,188.19H50c2.08,3.06,5.45,1,8,2a5.16,5.16,0,0,1-4.76,4.61c-2.54.16-3.09-2.85-4.35-4.63A1.42,1.42,0,0,1,49,188.19Z"/><path class="cls-207" d="M71,197.25c.36,2.89,2.83,3.68,4.86,4.91.62.53,1.64.8,1.21,2-4.14,1.35-7,.21-8.17-4.2A2.76,2.76,0,0,1,71,197.25Z"/><path class="cls-208" d="M68,168.22c-.37,3.33,3.14,4.58,3.92,7.3-2.14,0-1.76,1.35-1.24,2.53s.86,2,.22,3.1c-2.12.24-1.86-1.78-2.65-2.79-.28-1.78-.54-3.64-2.29-4.62-2.17-1.21-1.59-2.87-1-4.59a2.13,2.13,0,0,1,2-1.94C67.35,167.49,67.93,167.59,68,168.22Z"/><path class="cls-206" d="M81,177.21c1.55,2.05,5.29,2.23,5,5.86C78.78,183,78.12,182.25,81,177.21Z"/><path class="cls-209" d="M77,171.4c2.51-.2,3.76,1,3.86,3.48-.85.66-1.6,1.51-2.82,1.42.5-1.37,1.4-2.67-1.16-3.16C74.47,172.68,77.08,172,77,171.4Z"/><path class="cls-210" d="M69,178.22l1.89,2.93c-1.45,2.46-3.2-.45-4.74.26L68,179.2C67.57,178.14,68.07,178,69,178.22Z"/><path class="cls-211" d="M77.11,186.92c-2.72,1.22-4,.23-4.14-2.65C75,184.08,76.22,185.28,77.11,186.92Z"/><path class="cls-212" d="M49,188.19l-.14,2a6.3,6.3,0,0,1,0-7Z"/><path class="cls-213" d="M87.88,184.24a2,2,0,0,1,1.2,1.91c-.81,1.11-2,1.06-3.19,1.08C85.53,185.55,89.2,186.57,87.88,184.24Z"/><path class="cls-136" d="M57,217.2a3.87,3.87,0,0,1-1.86,3.37C54.06,218.51,54.62,217.36,57,217.2Z"/><path class="cls-214" d="M106.72,96.17c.56,1,2,1.3,2.05,2.65-.57,2.82-3.22,3.74-5.15,5.08-2.44,1.7-3.3-1.05-4.49-2.49-1.71-1.8-4-2.73-6-4.11-1.63-1.15-3.68-1.59-5.16-3a.93.93,0,0,0-.78-.19c-.62-2.53.65-3.91,2.87-4.71a24.7,24.7,0,0,1,10,4.79,5.49,5.49,0,0,0,.95.28C102.61,95.93,105,95,106.72,96.17Z"/><path class="cls-215" d="M106.72,96.17c-2-.46-4.91,2.45-5.77-1.71a13.14,13.14,0,0,1,5.76.85A1.59,1.59,0,0,1,106.72,96.17Z"/><path class="cls-216" d="M90.9,105.39c-2.3-.16-4.69,2.14-6.91-.25-4.26-.87-8.73-1.35-11-5.91l.87-1.06c2.91-1.9,5.06,3.2,8,.87,2.29-.86,4.51,1.1,6.81.16,2.24.32,4.11,1.17,5,3.44C93.75,104.56,93.48,106.16,90.9,105.39Z"/><path class="cls-217" d="M92.87,102.24l-4.91-2c-.31-.37-.95-.43-1-1.05l1-4.85a5.48,5.48,0,0,1,5.86,2c1.34,1.47,1,3.26,1,5a2.82,2.82,0,0,1-.69,1.17A1,1,0,0,1,92.87,102.24Z"/><path class="cls-218" d="M87,99.15l1,1.05L81.87,99C83.61,97.16,85.28,98.55,87,99.15Z"/><path class="cls-219" d="M71,159.2l-2-1.19c-.86-.46-2.32-.18-2.27-1.78.06-.37.47-.81.21-1.13s-.7.1-1.07.18c-6.18.89-3.3-3.08-3.05-5.65.56-2.37,2.32-3.12,4.49-3.3a8,8,0,0,1,6,2.81,5.39,5.39,0,0,0,2.87.53c1.15.35,2.13-1.39,3.35-.3.92,2.2,1.91,4.37,2.8,6.58-1.55,2-4.21,2.45-5.78,4.38a2.56,2.56,0,0,1-1.31.31C73.66,160.42,72.84,158.3,71,159.2Z"/><path class="cls-33" d="M79,149.23c-1,.1-.92,3.66-2.87.94-1.56-.52-2.08-1.46-1.2-3,.83-2.85,3.9-4.39,4.37-7.45.17-1.49,1.15-1,2-.85,2.23,2.32,6,1.88,8.11,4.36A10.93,10.93,0,0,1,92.58,146a6.09,6.09,0,0,1,.86,3.38c-1.82,4-5.21,1.43-7.88,1.88A9.77,9.77,0,0,1,79,149.23Z"/><path class="cls-220" d="M80.86,139.12l-1.54.63c-4.51-.7-7.35-4.23-10.9-6.54-1.55-1,2.5-2.94-.43-4,2.23-2.4,4.46-1.9,6.16.43a5,5,0,0,0,2.11,1.67c4.6.91,8.14,3.18,9.91,7.72C84.43,140.91,82.64,139.68,80.86,139.12Z"/><path class="cls-221" d="M67.26,146.34c-1.22,1-3.3,1.2-3.44,3.36-.22,2.48-1.83,3.73-4,4.51-2.34.2-3.81-1-4.86-2.94-.7-.8-.24-1.61,0-2.43a2,2,0,0,0-.48-2.22,4.46,4.46,0,0,1-2-1.63,2.28,2.28,0,0,1,.27-2c1-1,2.22-.81,3.42-.84a4.64,4.64,0,0,1,1.35.17,8.59,8.59,0,0,1,1.68.83,1.76,1.76,0,0,0,2,.09,4.68,4.68,0,0,1,1.58-.66,3.24,3.24,0,0,1,1.2.13A3.54,3.54,0,0,1,65.89,145Z"/><path class="cls-159" d="M88,120.2c0-1.54,2.64-1.94,1.7-3.89.73-1.67,2-1.63,3.37-1,1.11.54,2,1.52,3.4,1.45a17.41,17.41,0,0,1,6.42.42c3.8.65,7.8-.65,11.5,1.09a3.64,3.64,0,0,1,1.07,1,3.12,3.12,0,0,1,0,2.85,4,4,0,0,1-4.57,1.37c-.89-.2-1.7-.64-2.6-.83s-1.75-.31-2.63-.5c-4.42-.79-8.85.76-13.29-.11C90.78,121.7,89.09,121.79,88,120.2Z"/><path class="cls-159" d="M96.9,139.37c1.14,1.32,2.22,1.49,3.2-.17,3.51-.95,7-1.23,10.1,1.1a2.48,2.48,0,0,1,.24,1.54,4.21,4.21,0,0,1-2.82,2.3,9.11,9.11,0,0,0-4.75,2.16c-3.05-2.27-7.23-.23-10.25-2.64a9.26,9.26,0,0,1-1.22-.59c-.94-.67-1.89-1.34-1.44-2.74l2-.3C93.55,139.42,95.05,138.1,96.9,139.37Z"/><path class="cls-222" d="M54,138.2l-1.05-2.08-1-2.65c.61-1.54,2.21-2.61,2.18-4.46l1,.52c.65.43,1.3.79,2,.14a3.37,3.37,0,0,1,3.69.21c.94.72,1.82,1.56,1.7,2.79-.17,1.71-1.36,1.39-2.56,1.1-2.22-.53-1.88,1.06-1.84,2.36-.18,3-2.44,1.88-4,2.08Z"/><path class="cls-223" d="M92.76,116.23c-1-.88-2-.37-3,.08-1.74-.33-4.13-.36-3.87-2.75.28-2.62,2.18-4.29,5-4.54,2.12.18,4.91-.61,4.5,3.17a2,2,0,0,1,.1,1.29A4.31,4.31,0,0,1,92.76,116.23Z"/><path class="cls-224" d="M88,120.2c5.95,1.25,12-.08,18,.81a4.27,4.27,0,0,1-1.75,2.6,4.55,4.55,0,0,1-1.17.54,9.26,9.26,0,0,1-1.9.25l-1.26.17c-2.46,1.55-5.33,1.21-8,1.7h0a3.16,3.16,0,0,0-3.37-2.88C85.51,122.8,87.27,121.42,88,120.2Z"/><path class="cls-225" d="M102.9,132.35l1.12.85a2.93,2.93,0,0,1,.55,3,4,4,0,0,1-4.73,2c-1.37-1.41-3.26-.85-4.89-1.3-2.91-1.14-.31-3.18-.77-4.72.17-1,1.08-.87,1.72-1.17,2.25.74,4.88-.73,6.92,1.21-.28.34-.78.29-1.07.6A3.05,3.05,0,0,0,102.9,132.35Z"/><path class="cls-226" d="M66.86,124.24c-1.89-1.91-.33-3.16,1.1-3.81s3.5-1.16,4.15,1.07c.79,2.68,2.76,2.71,4.86,2.8.73,1.08,3.6,1.4,1.26,3.56a7.67,7.67,0,0,1-2,.74C72.8,127.86,68.75,128.38,66.86,124.24Z"/><path class="cls-227" d="M73,99.23c3.13,3,7.89,2.9,11,5.91-1.73,2.36-3.51,3.79-6,.69-1-1.24-2-2.48-4.08-2-1.94.45-2.34-1.36-2.7-2.8S71.26,98.74,73,99.23Z"/><path class="cls-228" d="M66.86,124.24a17.54,17.54,0,0,0,9.11,3c.58.78,1.73,1,2.06,2a2.7,2.7,0,0,1-1.76,2.07c-.89-.28-1.92,2.49-2.51.16-1-3.76-3.48-2.47-5.76-2.26C63,128.6,65.62,126.26,66.86,124.24Z"/><path class="cls-229" d="M99.84,138.26l4.08-2c2.18-1,4.31-1.15,6.32.43,1.29.79,2.72,1.54,2.33,3.41-.29,1.39-1.13,2-2.55,1.31-3-2.34-6.85-.32-9.92-2.16A4.47,4.47,0,0,1,99.84,138.26Z"/><path class="cls-230" d="M90,140.33l1.94,1.91c.38,2-1.13,1.76-2.27,2l-.63,0c-1.9-.28-2.79-2.89-5.6-1.68-1.91.82-1.39-2.43-2.55-3.44,1.74-1.39,3.54.2,5.3-.1Z"/><path class="cls-231" d="M84,123.07c2.14,1.23,3,3.83,2,5.29-1.75,2.52-3.92-.37-6-.74-.81-1.08-1.66-2.14-1.36-3.64l0,.11C80.19,122.2,82.15,122.82,84,123.07Z"/><path class="cls-232" d="M91.9,126.28c1.13-.75,1.33-3.65,3.56-1.8,2.53,2.1,2.2-3.53,4.52-1.52.26,1.56.5,3.11-1,4.25-2,1.58-4,1.07-6.12.28Z"/><path class="cls-233" d="M94.18,132.23c1.7,1.34-.49,3.31.77,4.72-3,.61-5.4-.05-7.68-3.25C90.12,133.73,92.33,133.59,94.18,132.23Z"/><path class="cls-234" d="M65.89,145a2.35,2.35,0,0,1-2-1.65c-1.3-2.86,1-3.55,2.75-4.55a2.42,2.42,0,0,1,2.16.46l1.15,1c1.49,3.29-2,1.9-2.82,3Z"/><path class="cls-235" d="M84,123.07c-1.42,2.16-3.69-.09-5.31,1,.3-1.71-1.05-4.29,1.74-4.76C83,118.9,83,121.61,84,123.07Z"/><path class="cls-178" d="M54,138.2c1.24-.91,3.06-.67,4-2.08l3.09,2a2.45,2.45,0,0,1-1,1.7,3.61,3.61,0,0,1-2.56.7l-.59-.34Z"/><path class="cls-236" d="M60,139.21l1.14-1.07c2.66-.23,5.59-2.35,7.73,1.1l-1.86,0C64.64,140.22,62.29,141.39,60,139.21Z"/><path class="cls-237" d="M68.08,108.18c-1.79.42-3.65,1.35-5.06-.76C64.92,106.24,67,104,68.08,108.18Z"/><path class="cls-238" d="M75,116.19a4.17,4.17,0,0,0,2.19-2.34.67.67,0,0,1,.88.32c.4,1.12,1.44,2.33-.11,3.32S75.69,117.26,75,116.19Z"/><path class="cls-239" d="M75,147.21l1.2,3c-.14.88-.78,1.74-1.47,1.62-1.27-.23-1.08-1.68-1.47-2.64Z"/><path class="cls-240" d="M78.75,124l1.36,3.64-1,.64c-1.12.44-1.3-.11-1.11-1.05.77-1.35-1.51-1.65-1-2.91Z"/><path class="cls-241" d="M96.9,139.37l-5,.66C93.23,137.09,95,137.64,96.9,139.37Z"/><path class="cls-80" d="M67.18,143.21c.57-1.35,3.57-.41,2.82-3C72,143.94,68.94,143,67.18,143.21Z"/><path class="cls-242" d="M57,129.66c.18.55,1.63.87.88,1.3a1.85,1.85,0,0,1-2.9-1.44Z"/><path class="cls-243" d="M78,127.21l1.11,1.05-1.06,1a2,2,0,0,1-2.06-2Z"/><path class="cls-244" d="M78.05,114.17q-.43-.18-.88-.32l.69-2.48C80,112.17,78.73,113.19,78.05,114.17Z"/><path class="cls-232" d="M88.54,123.4c2.29-.4,3.72.19,3.37,2.88C91.21,124.82,89.85,124.14,88.54,123.4Z"/><path class="cls-245" d="M124,221.22l-4-.1a6.69,6.69,0,0,1-3.28-.73c-1.7-2.08-2.21-5.44-5.86-5.41-4.36,1.27-5.35-2.88-7.74-4.79-1.18-1.48-3-2.68-2.12-5l-.1.1c1.94-1,3.88-1.28,5.83,0,2.58,3.59,5.61,4.27,9.18,1.38a3.94,3.94,0,0,1,3.42.76,7,7,0,0,1,2.2,2.71c.74,2-.86,4.27.72,6.18.63,1.13,1.88,1.82,2.28,3.12A1.87,1.87,0,0,1,124,221.22Z"/><path class="cls-69" d="M115,226.3c1.31-1.7,4.28.64,5.15-2.13,2.45-1.64,4.66-1.27,6.19,1.17,1,1.52,2.55,1.82,3.78,2.77-.61,1.36-1.89,1.7-3.14,2.1-1.39.56-2.09,1.35-3.66-.78S117.52,228.24,115,226.3Z"/><path class="cls-246" d="M127,230.21c.15-2,1.72-1.94,3.14-2.1,3.22.18,5,1.83,5,5.1a3.3,3.3,0,0,0-.3.88c-2.9-.74-5.12-2.84-7.87-3.89Z"/><path class="cls-247" d="M117.19,220.15a3.91,3.91,0,0,1,2.82,1l-1,1.07c-1.28-1.76-4.22,0-5.17-2.48-.14-.91-.82-2.19.6-2.43C116.45,216.92,116,219.41,117.19,220.15Z"/><path class="cls-69" d="M127,230.21c3.57-.62,5.53,2,7.87,3.89l.06,1.1C132.17,233.66,128.58,233.51,127,230.21Z"/><path class="cls-248" d="M114,230.17c2.17.18,4.69-.66,6,2C117.64,232.54,115.9,231.09,114,230.17Z"/><path class="cls-249" d="M85,233.18c-3.24,1.17-5.55.13-7-2.94a8.13,8.13,0,0,1,7,2Q85,232.71,85,233.18Z"/><path class="cls-250" d="M55.91,145.45c1.95,1.12,1.72,2.45.39,3.89-4.67,3-10.06,3.2-15.33,3.86-1.23,0-2.44,0-3.19-1.23.2-2,.63-3.9,2.73-4.85a47.8,47.8,0,0,0,5.45-1.6,8,8,0,0,1,1.39-.42,13.41,13.41,0,0,1,2.91-.25C52.15,145,53.91,146.35,55.91,145.45Z"/><path class="cls-251" d="M49.94,146.19l-3-.15c-1.08-1.26.1-2.58-.1-3.87.41-1,1.36-1,2.19-1.19l1.93,1.33a1.63,1.63,0,0,1,2,1.11V145C52.33,146.34,50.7,145.17,49.94,146.19Z"/><path class="cls-252" d="M46.82,142.17c3.32,1.2-.27,2.59.1,3.87l.07.37c-1.32-.12-2.69.23-4-.41C43,143.41,45.55,143.43,46.82,142.17Z"/><path class="cls-253" d="M43,146a2.9,2.9,0,0,1,4,.41c-2,1.42-4.31.6-6.49.72C41.1,146.18,42.1,146.16,43,146Z"/><path class="cls-254" d="M41,153.2c4.71-2.85,10.25-2.44,15.33-3.86L55,151.26c-1.89,1.76-2.49,7.08-6.77,2.08-1.18-1.37-2.07,1.3-3.2,1.95-1-.13-2.05.84-3-.09Z"/><path class="cls-10" d="M42,155.21c1-.36,2.07-1.46,3,.09l-1.17,1.88c-1.13.12-2.28.29-3-.88Z"/><path class="cls-234" d="M53,143.43c-.68-.36-1.71-.08-2-1.11.81-4.14,4.34-.52,6-2.13h0A2,2,0,0,1,57,143Z"/><path class="cls-115" d="M74.94,160.18h1c4.25-.1,7.76,2.27,11.6,3.54,2,.66,3.91,1.73,6.14,1.29,2-.14,4-.15,5.46,1.6.47,1.47.77,2.9,2.45,3.78s2.2,2.67,1.1,4.55c-1.6,1.81-3.38,2.89-5.78,1.4-.73-1.06-1-2.51-2.64-2.75-2-.94-4.24-.9-6.35-1.43a5,5,0,0,1-1.73-1.07c-1-2.27-5.63-.86-4.93-4.85-3.08-.6-6.1-1.74-9.32-1-1.37-1.7-1.13-3.07.83-4.09C73.32,160.39,73.87,159.69,74.94,160.18Z"/><path class="cls-255" d="M59.84,154.2c.88-1.9,3.76-2,4-4.51,2.6.62-4.86,6,2.12,4.53.92.36,1.56.86,1,2l2,1.81c-1.69.64-3.22,2-5.1,0-1.39-1.51-2.1.4-2.94,1.2-1.54.62-2.66-.36-3.88-1C55.76,155.31,58.91,155.53,59.84,154.2Z"/><path class="cls-256" d="M69,178.22l-1,1c-1.19-3.41-3.71-4.48-7.1-4,3.88-.3,2.66-4,4.06-6,.49,1.08-1.06,2.77,1.81,3.26C68.57,172.71,69.33,175.81,69,178.22Z"/><path class="cls-257" d="M57,158.19c1.72-1.33,2.81-.22,3.88,1-.23,1,.72,2.8-.63,2.87C58,162.19,57.12,160.33,57,158.19Z"/><path class="cls-255" d="M74.94,160.18l-2.14,1L71,159.2c.15-.93.39-2.52,1.26-2.13C73.37,157.57,74.06,159.09,74.94,160.18Z"/><path class="cls-258" d="M68,168.22l-1-1c1.07-1.09,2.52-.62,3.79-.9l3.15,2.13C71.88,169.6,70,167.55,68,168.22Z"/><path class="cls-259" d="M58.78,177.18c-1.63,2.17-3.95.13-5.8.95C54.69,176.43,56.84,177.49,58.78,177.18Z"/><path class="cls-260" d="M91,202.24l9.06,2.83c1.48,2.48.17,3.69-2.07,4.4-2,.65-4.2,1-6,2.27-1.54.3-1.36,3.41-3.65,2.33-1.66-.78-3.21-2-2.82-4.08.44-2.35-4.9-4.21-.52-6.79C86.85,202.19,89,202.65,91,202.24Z"/><path class="cls-261" d="M111.95,197.74c-4.65-.41-8.76,3.38-13.68,1.54-2.33-.87-5.28-.51-5.33-4.15.6-.68,1.12-1.5,2.22-1.35,2.64,1,5.24,0,7.86-.18,5.12-2.22,10.33-2.87,15.71-1a3,3,0,0,1,.91,3.34c-.92,1.79-2.4,2.13-4.21,1.66a3.81,3.81,0,0,0-2.35-.11A5.9,5.9,0,0,1,111.95,197.74Z"/><path class="cls-262" d="M95,194.34l-2.08.78-.1-1.39c1.91-1.87.24-4.43,1.25-6.47.3-1.43,1.33-1.86,2.63-1.91a4.79,4.79,0,0,0,4.32-.52,5.19,5.19,0,0,1,3.43.68c1.31.81,2.37,1.78,2,3.54a14.34,14.34,0,0,1-4.29,4.55C99.72,193.2,97.41,194.12,95,194.34Z"/><path class="cls-263" d="M103.95,209.32a3.32,3.32,0,0,1,2.76,2.39c.59,3.14,2.47,2.06,4.25,1.6,1.66,3.24-2.52,2.3-2.91,4.07l0,1.81c-3.05,0-5.86-2.06-9-1a6.9,6.9,0,0,1-1.21-4.85C98.72,210.22,101.73,210.37,103.95,209.32Z"/><path class="cls-264" d="M109,202.36l5.75-.31a18,18,0,0,1,9.76-2.19,5.25,5.25,0,0,1,4.9,3.91c.12,1.89-.87,2.86-2.65,3.15-1.6,0-3.07-.9-4.7-.73a10.15,10.15,0,0,1-1.34-.09,52.55,52.55,0,0,0-7.48-.49c-1.53,0-3.07,0-4.32-1.1A1.62,1.62,0,0,1,109,202.36Z"/><path class="cls-214" d="M103.95,209.32c-.68,3.38-4.52,2-6.09,4h0c-.56-.64-1-1.69-2-.36-1.73.89-2.83-.2-4-1.24.11-3.17,3-2.9,4.79-3.34,2.09-.52,3.44-1,3.27-3.33l1,.07Z"/><path class="cls-265" d="M109,204.19l5,0c2.27.74,4.54,1.54,7,1h1c1.1.45,2.2.9,2.59,2.19a2.25,2.25,0,0,1-.46,2c-1.95,1-3.41-1.25-5.28-.78l-2.77-1.34c-3.23.92-6.4,1.22-9.32-.94-1.93-.42-3.73-1.55-5.83-1.06,1.74-.89,2.51-3.46,5.07-2.94C106.8,203.22,108.21,203.2,109,204.19Z"/><path class="cls-266" d="M99.07,218.18c3.35-2.74,6.19-.91,9,1,1.76.89,2.57,2.53,1.48,4s-2.29-.46-3.49-.69C103.18,222,101.78,219,99.07,218.18Z"/><path class="cls-267" d="M111.95,197.74l-.07-.19a4,4,0,0,1,3.28-1.36,3,3,0,0,0,3.81,0c1.26-1.43,1.55-4.69,4.72-2.49a5.46,5.46,0,0,1-.36,5.67c-2.65,1.12-5.35,1.85-8.21.76Z"/><path class="cls-266" d="M108.05,217.37c-1.61-3.2,3.59-1.53,2.91-4.07,4.22.34,6.12,2.78,6.23,6.85-1.23.62-1.68-4.57-3.37-.45A11.86,11.86,0,0,0,108.05,217.37Z"/><path class="cls-268" d="M115.12,200.14c2.48-1.53,5.25-.73,7.88-1a1,1,0,0,1,1-.36,2.38,2.38,0,0,1,1.23,1.11,1,1,0,0,1-.19,1c-3.48-.16-6.73,1.87-10.28,1.11Z"/><path class="cls-269" d="M91,202.24c-1.76,1.81-3.88,1.37-6,1C86.69,201.15,88.74,201.18,91,202.24Z"/><path class="cls-270" d="M77.06,204.13c-.5-.6-1.46-.92-1.21-2a3.29,3.29,0,0,1,.93,0l5.19.27-3.17,2.26Z"/><path class="cls-263" d="M95.92,213l-1.15-1.41c.54-.25,1.1-.77,1.61-.71,1.45.15,1.52,1.34,1.5,2.49Z"/><path class="cls-271" d="M109,204.19c-1.41,0-2.82,0-3-1.88l3,0Z"/><path class="cls-156" d="M81.28,166.25c1-.5-.57,3.21,2,1.13,1.42-1.13,2.61,1.55,3.64,2.84-.48,2.56-3.74,3.26-4,6l-1,0C82.92,172.81,80.36,169.65,81.28,166.25Z"/><path class="cls-272" d="M90,183.21l1-3c3.68-1.8,4.72.1,4.75,3.4-1.27,2.66-3,2-4.74.58Z"/><path class="cls-10" d="M91,184.2c1.33.07,2.66.91,4,0,1.16.06,2.16.31,2,1.82l-2.87,1.24C92.76,186.54,91.08,186.17,91,184.2Z"/><path class="cls-273" d="M97,186l-2-1.82c.17-2.84-1.15-4.19-4-4A2,2,0,0,1,89,179.13l.47-.63c2.81-1.67,5.63-2.61,8.54-.23-.27,2,.45,3,2.58,2.72a2.39,2.39,0,0,1,1.29,1.63,2.83,2.83,0,0,1-.75,2.78C100.35,189.59,98.58,187.29,97,186Z"/><path class="cls-274" d="M83,176.19c-.64-3.3,1.69-4.63,4-6l1.18,1.06c2.85,2.21,2.86,4.82,1.06,7.67l-.17.19C86.72,178.78,86.64,173.82,83,176.19Z"/><path class="cls-275" d="M112.19,172.08c5.61-1.12,11.2-2.17,14.67,4.2,0,1.65-.08,3.26-1.84,4.12-2.44-1.34-5.51-1.5-7.36-4a6.22,6.22,0,0,1-.94-.91c-.72-1.11-1.87-1-3-1.06-1.1-.2-2.34-.29-2.7-1.59C110.8,172,111.52,172,112.19,172.08Z"/><path class="cls-276" d="M118,175.21c1.89,2.35,5.39,2.52,7,5.19-1.11,1.56-2-.08-2.92-.24a6.71,6.71,0,0,1-4.15-.25,4.32,4.32,0,0,1-2.3-2.6C115.47,175.57,117.19,175.9,118,175.21Z"/><path class="cls-277" d="M100.11,100.53a3.49,3.49,0,0,1-.11.73c-2,.78-4,1.3-6-.19-.84-1.57.07-3.21-.19-4.81C95.92,97.69,98.46,98.45,100.11,100.53Z"/><path class="cls-278" d="M94,101.07c2,.41,4-1,6,.19-1.27,5.37-4.06.35-6,.88Z"/><path class="cls-279" d="M101.77,154.21c.4,1.57,2.25,1.77,3.08,3-.71,1.43-3,1.11-2.95,3-.84.23-1,.72-.56,1.45-.1.89-.84,1.74-.13,2.66a4.69,4.69,0,0,1,1.16,2.27,1.63,1.63,0,0,1-.71,1.14,2.48,2.48,0,0,1-2.68-.38c-1.71-1.74-3.93-1-6-1.25-2.06-2.31-4.11-4.44-7.44-5.15a4.49,4.49,0,0,1-3.45-4.81c-3.79-1.06-3-4.2-3.11-6.9,2.75-2.08,4.26,2.25,6.78,1.31a1.41,1.41,0,0,1,.77.87,6.44,6.44,0,0,0,.71,2.26c.88,1.24,2.48.72,3.55,1.44a7.52,7.52,0,0,1,1.13.63c1.38,1.48,2.67.26,4-.17a8.66,8.66,0,0,0,4-1.78A1.61,1.61,0,0,1,101.77,154.21Z"/><path class="cls-260" d="M82.13,156.13c1.91,2,3.12,4.52,7,4.09,3.43-.38,3.19,3.46,3.9,5.87-.24.22-.55.66-.69.62-5.58-1.86-11.39-3.19-16.38-6.52C76.52,156.56,79.14,156.07,82.13,156.13Z"/><path class="cls-280" d="M67,156.19l-1-2c.69-1.1,1.69-2.66,2.86-1.25C70.27,154.74,68.78,155.77,67,156.19Z"/><path class="cls-281" d="M85.88,151.18a.41.41,0,0,1-.08-.64c2.13-1.82,5.33,1.94,7.17-1.38a3.18,3.18,0,0,1,2.71.16c1.68.78,3.79.86,4.8,2.8a2.43,2.43,0,0,1-.21,2.09c-.07,3.52-2.33,2.39-4.25,2-1.7,1-3.41-1.87-5.1,0v0c-.63-2.06-2.95-1.52-4.15-2.7C86.08,152.92,86.61,151.82,85.88,151.18Z"/><path class="cls-224" d="M93,142.2c1.6.59,2.68,2.84,4.9,1.46,3.06-1.89,3.9.48,4.84,2.6l.5.49a1.62,1.62,0,0,1-.72,1.12c-2.9,1.53-5.22-.8-7.83-1.16a3.88,3.88,0,0,1-2.55-.49l-3.09-2h0C90.2,143.33,92.26,144.09,93,142.2Z"/><path class="cls-282" d="M92.1,146.23,94,145.4c1.75.89,3.71,1.6,3.43,4.17a1.51,1.51,0,0,1-2.4.74L93,149.17C91.79,148.46,92.32,147.23,92.1,146.23Z"/><path class="cls-283" d="M100.93,125.2a3.7,3.7,0,0,1-1.16,2.86L99,127.2c.55-1.36-1.07-3.25,1-4.25a3.06,3.06,0,0,0,.87.45C101.34,124,101.12,124.59,100.93,125.2Z"/><path class="cls-176" d="M57,143q0-1.43,0-2.86l3-1,7,.06c-.6,1.67-3.09,1.92-3.06,4.06l-.95-.24c-1.73-1.09-3.38-.32-5,.21A7,7,0,0,1,57,143Z"/><path class="cls-234" d="M57.94,143.3c1.58-2.44,3.18-4.53,5-.21l-1,1.1a3.43,3.43,0,0,1-3.09.08Z"/><path class="cls-284" d="M49.94,146.19c.52-1.63,2.1-.59,3-1.2l2.94.46C54.06,146.81,51.93,146,49.94,146.19Z"/><path class="cls-285" d="M58.85,144.27a2.78,2.78,0,0,1,3.09-.08C61,146.49,59.93,145.87,58.85,144.27Z"/><path class="cls-286" d="M108,116.14c2.62-.16,4.89.38,6.12,3l-11.12-1c-.53-1.07.31-1.53.92-2.09a9.28,9.28,0,0,1,2.22-1.16C106.67,115.43,106.93,116.4,108,116.14Z"/><path class="cls-287" d="M105,117.2a2.25,2.25,0,0,0-2,1l-7.26-.09c-.75-1.29-.94-2.5.5-3.48a3.37,3.37,0,0,1,.85-.2c1.11.09,2.25-.12,3.3.41C101.83,115.75,105.5,112.41,105,117.2Z"/><path class="cls-288" d="M96.21,114.62l-.5,3.48c-1.23-.23-2.4-.57-3-1.87.49-1.2.81-2.5,2.08-3.18Z"/><path class="cls-289" d="M111,122.29c-.83,1.4-2,1.23-3.21.65l1.12-1.21Z"/><path class="cls-290" d="M106.94,143.26l.24,2c-.89,2.55-2.46,2-4.14.89l-.34.11C102.62,143.14,104.42,142.69,106.94,143.26Z"/><path class="cls-33" d="M93,142.2c-.34,2.61-2.4,1.84-4,2l2.92-2Z"/><path class="cls-291" d="M103.93,122.76c.56.52,1.66,1.19,1.57,1.54-.33,1.27-1.56.76-2.48.78a1.07,1.07,0,0,1,0-1.76Z"/><path class="cls-292" d="M103,123.31q0,.88,0,1.76l-2.08.12c-1-.56-.24-1.19-.07-1.8Z"/><path class="cls-293" d="M102.9,132.35c-1.07,3-2.59-.31-2.82-.07h2.74Z"/><path class="cls-294" d="M118.82,208.59c2-2.61,3.39.44,5.1.57,1.4-.81,2.64-.29,3.83.49,1.08,1.09-.5,2.27.12,3.39,0,1.31,2.3,2.14.76,3.75a4.26,4.26,0,0,1-3.29.37c-4-.7-3.49-4.29-4.44-6.94A2.63,2.63,0,0,1,118.82,208.59Z"/><path class="cls-295" d="M106.73,206.31c3.1.34,6.33-.52,9.32.94C111.5,211.66,109.78,211.49,106.73,206.31Z"/><path class="cls-296" d="M125.1,216.28l3.86-.14c1.64-.29,2.3.43,2.11,2-2.06,2.82-5-.28-7.24,1L121,217.12C122.1,215.5,123.82,216.95,125.1,216.28Z"/><path class="cls-297" d="M125.1,216.28c-1,1.81-2.62,1.05-4.09.84-2.43-2.26-.36-4.59-.11-6.9C123,211.77,122.52,215.07,125.1,216.28Z"/><path class="cls-298" d="M127,213.2c-1-1.43.23-2,1-2.75,3.91-3,5.76,0,7.73,2.67a3.68,3.68,0,0,1-.72,4.12c-1,.57-1.48,2.1-3,1.89q-.05-.43-.09-.87C131.31,215.57,128.49,215,127,213.2Z"/><path class="cls-299" d="M127,213.2c2.38,1,5.06,1.66,4.94,5.07l-.84-.1-2.11-2C128.55,215,125.61,215.55,127,213.2Z"/><path class="cls-245" d="M111.88,183.1a1.93,1.93,0,0,1,1.09,2l-2-.06c-3.43-.52-7-.42-9.88-2.92l-1-1.17a2.56,2.56,0,0,1-2-1.79c-2.89-2.39-5.89-.13-8.84-.23l-1.06-7.67c2.36.52,5.34-1.28,7,1.89a3,3,0,0,1,1.79,2.15c2.14,1.95,3.58.33,5.09-1a1.57,1.57,0,0,1,1.9-.52A35.24,35.24,0,0,0,111.88,183.1Z"/><path class="cls-300" d="M103.87,174.45l-1.86-.12c.81-1.66.25-2.75-1.43-3.29-2-.64-2.11-2-1.6-3.7l2.89-.33c3.3,1.63,7.63,2.2,7.56,7.32a3.28,3.28,0,0,1-2.15,1.64C105.7,176.47,105,175,103.87,174.45Z"/><path class="cls-301" d="M96.92,175.31l-1.79-2.15C97.85,172.11,97.71,173.44,96.92,175.31Z"/><path class="cls-302" d="M105.73,189c4.21,1.05,9.62-1.43,12.3,4.17-5.09-.65-10.07.19-15.06,1a1.27,1.27,0,0,1-1.16-1.07C102.69,191.36,103.41,189.42,105.73,189Z"/><path class="cls-303" d="M101.81,193.13,103,194.2c-2.64.73-5.23,3.93-7.95.14C96.77,191.08,99.34,192.41,101.81,193.13Z"/><path class="cls-304" d="M115.15,196.18c-.68,1.46-2.17.95-3.28,1.36C112.45,195.86,113.26,194.72,115.15,196.18Z"/><path class="cls-271" d="M121,205.21c-2.68,2.12-4.78.13-7-1A19.27,19.27,0,0,1,121,205.21Z"/><path class="cls-271" d="M126,206.3c-.32,1-1.28.73-2,.94l-2-2A2.86,2.86,0,0,1,126,206.3Z"/><path class="cls-305" d="M98.05,179.17a2.54,2.54,0,0,1,2,1.79c-.32.46.1,2.08-1.31.83-.87-.77-1.76-1.54-2.64-2.3Z"/><path class="cls-306" d="M101.74,166.29,100,165.11c-1.16-1.91.39-2.2,1.61-2.7,2.44-1,4.9,0,7.35,0,1.82.87,3.33,2.3,5.75,1.74a2.61,2.61,0,0,1,3,2.58c.13,1.94-1.79,1.35-2.9,1.73a1.46,1.46,0,0,1-1.16,0,8,8,0,0,0-2.29-.64c-.61.08-1.23.12-1.84.16-1.09.08-2.17.27-3.27.26A12.23,12.23,0,0,1,101.74,166.29Z"/><path class="cls-307" d="M101.74,166.29l5.23.92c1.11.58,2.5.49,3.48,1.42a8.46,8.46,0,0,1,1.57,2.76q.08.35.18.69c.2,2.14,1.89.67,2.77,1.14a21.93,21.93,0,0,1,2,2h1l-2,2a1.54,1.54,0,0,1,.28,1.91c-.66.51-1.24.25-1.79-.2a6.35,6.35,0,0,0-2.76-2.34c-1-.68-2.13-1.21-2.72-2.37-.25-4.5-6.09-3.45-7.12-7.18A2.42,2.42,0,0,0,101.74,166.29Z"/><path class="cls-308" d="M108.91,162.36c-1.25,1.58-2.83,1.14-4.52,1s-3.81-.88-4.44,1.78c-2.83-2.1-2.83-2.12,1.08-3.88a.59.59,0,0,1,1-.21C104.63,159.88,107,160.11,108.91,162.36Z"/><path class="cls-309" d="M112,171.39l-2.29-2.21a2,2,0,0,1,.07-2c.28-.46.53-1,1.23-.54a30.8,30.8,0,0,1,2.93,1.56,4,4,0,0,1,.81.23C113.15,168.78,112.93,170.4,112,171.39Z"/><path class="cls-310" d="M100.27,154.22l-.58-2a2.16,2.16,0,0,1,3.2,0h0l-1.12,2Z"/><path class="cls-311" d="M102,161l-1,.21c-.69-.23-2.19.16-2-.58.4-1.4,1.76-1,2.84-.46A4.85,4.85,0,0,1,102,161Z"/><path class="cls-312" d="M117,175.2a1.9,1.9,0,0,1-2-2C116.23,173.27,118,172.84,117,175.2Z"/><path class="cls-300" d="M115.83,179.54l.14-2.34a3.94,3.94,0,0,1,2.16,2.35l-.27,1.48-1.78.12C115.39,180.71,115.44,180.15,115.83,179.54Z"/><path class="cls-313" d="M103.87,174.45c1.37-1.15,1.88,1.28,3.1.75a13.81,13.81,0,0,1,4.93,2.26,4.29,4.29,0,0,1,.91,1,3,3,0,0,1,.35,2.63l-1.3,2C106.65,182.59,104.74,179,103.87,174.45Z"/><path class="cls-314" d="M113.17,181.12,112,179.31c.71-1.1,1.34-2.46,2.87-.87l1,1.11.25,1.61Z"/><path class="cls-315" d="M105,117.2c-.76-2.94-4,.42-5-2a.64.64,0,0,1-.24-.71q.13-.35.26-.35c2.14-.5,4.46-2.43,6.11.8Z"/><path class="cls-316" d="M100,114.15l0,1.05c-1,0-2.12.17-2.91-.78C98,113.51,98.89,112.87,100,114.15Z"/><path class="cls-317" d="M90.92,156.25c1.69-2.32,3.4-.84,5.1,0C94.33,158.41,92.63,159.24,90.92,156.25Z"/><path class="cls-317" d="M87,153.21c2.15-.05,3.88.43,4,3.07-1.33-1.46-4.24.86-5-2.07A1.11,1.11,0,0,1,87,153.21Z"/><path class="cls-33" d="M87,153.21l-1,1c-1.14-1-.67-2-.08-3A2.23,2.23,0,0,1,87,153.21Z"/><path class="cls-318" d="M102.91,147c-1.55,1.81-3.79,1.89-5.88,2.34l-3-4C97.22,144.7,99.62,148.3,102.91,147Z"/><path class="cls-319" d="M112,178.22c-2-.38-3.92-1-5-3l2-1c1.45,0,2.84.07,3,2A1.34,1.34,0,0,1,112,178.22Z"/><path class="cls-320" d="M113.94,168.18c-1.26,0-2.58.15-2.93-1.56C112.28,166.6,113.47,166.7,113.94,168.18Z"/><path class="cls-321" d="M109.79,167.17l-.07,2-2.75-2A2.43,2.43,0,0,1,109.79,167.17Z"/><path class="cls-300" d="M112,178.22v-2c2.36-1.06,2.9.24,2.9,2.24-1.16-.39-1.92.56-2.87.87Z"/></g></g></svg>